<svg xmlns="http://www.w3.org/2000/svg" viewBox="0 0 2512.31 2605.6"><defs><style>.\36 d29ccbd-6310-4ac8-b461-6b904f9968e4{fill:#f8d949;}.\35 24f7e48-e603-40f6-821f-e53513f9a865,.\36 e24af6e-cc57-4b81-a650-56c98e4d5ba7,.\38 862c209-fa1a-4f4b-b223-02e53992b7ab,.\39 dd98283-8a5c-41b6-b881-3d821b83fbfd,.\39 eefa39d-ce54-443a-b5e3-776a77098728,.d16fd1e5-d70c-496c-b670-7173684873fc{fill:none;}.\30 7648f8a-532f-4fe6-8520-c3bc62880d87,.\30 9e3a56f-cdd2-483c-8f97-8b12f52563f7,.\31 dbbef63-b309-4f21-bd1c-13e7d95ebb61,.\33 204b854-1508-44fc-9fc4-f3a1b6a1905d,.\33 74055b0-4a8c-4355-818c-c51c8085e0d4,.\33 a4b4811-0e06-4d5c-83e7-7d0b17cb5985,.\34 1852fdc-7ca5-4c99-bf36-c9f5a1ea7292,.\34 2cc3af0-4131-4343-a1b5-16b795ff5e71,.\34 8edf599-ae07-4aa9-81e0-ff3dc59c90cc,.\35 24f7e48-e603-40f6-821f-e53513f9a865,.\35 728252f-61a1-44e4-8531-b45ff63bec78,.\36 0bcf9e8-20f2-4dea-a6af-cbffea2429a1,.\36 e24af6e-cc57-4b81-a650-56c98e4d5ba7,.\37 ac89fa6-c447-4245-a1f8-2487263c4a05,.\37 c4e1506-ed23-42da-80df-641a238e7a07,.\38 035fb13-5938-4353-8232-9a48da3779de,.\38 0887171-084f-4cc7-b2af-68cf8bd792e7,.\38 f6559aa-3702-40e2-b6a8-89da36ec67b9,.\39 0c40412-1083-4aae-a045-9b04d1d92341,.\39 dd98283-8a5c-41b6-b881-3d821b83fbfd,.\39 eefa39d-ce54-443a-b5e3-776a77098728,.a22a0936-7c46-4b0b-9006-c13eeb259357,.ae5150ca-2efe-472e-b48b-83da3f25fb9e,.b5aa5269-d5b5-46dc-b597-7cb221e6e6df,.cb5c438e-8c87-46db-a014-501d37d114b7,.d16fd1e5-d70c-496c-b670-7173684873fc,.dc70b717-a552-458f-a116-aa25a4ffa506,.e450857f-7020-4efe-bc4f-5db2abcf7bb0,.e789155f-cc83-41e2-96e4-3cfe0af64ff6,.f3aac2f3-ed99-4e14-b0e6-39952e562aac,.f45367f3-c97d-436b-8d80-ff575ab4d311{stroke:#000;}.\30 7648f8a-532f-4fe6-8520-c3bc62880d87,.\31 dbbef63-b309-4f21-bd1c-13e7d95ebb61,.\33 204b854-1508-44fc-9fc4-f3a1b6a1905d,.\33 74055b0-4a8c-4355-818c-c51c8085e0d4,.\33 a4b4811-0e06-4d5c-83e7-7d0b17cb5985,.\34 1852fdc-7ca5-4c99-bf36-c9f5a1ea7292,.\34 2cc3af0-4131-4343-a1b5-16b795ff5e71,.\34 8edf599-ae07-4aa9-81e0-ff3dc59c90cc,.\35 24f7e48-e603-40f6-821f-e53513f9a865,.\35 728252f-61a1-44e4-8531-b45ff63bec78,.\36 0bcf9e8-20f2-4dea-a6af-cbffea2429a1,.\36 e24af6e-cc57-4b81-a650-56c98e4d5ba7,.\37 ac89fa6-c447-4245-a1f8-2487263c4a05,.\37 c4e1506-ed23-42da-80df-641a238e7a07,.\38 035fb13-5938-4353-8232-9a48da3779de,.\38 0887171-084f-4cc7-b2af-68cf8bd792e7,.\38 f6559aa-3702-40e2-b6a8-89da36ec67b9,.\39 0c40412-1083-4aae-a045-9b04d1d92341,.\39 dd98283-8a5c-41b6-b881-3d821b83fbfd,.\39 eefa39d-ce54-443a-b5e3-776a77098728,.a22a0936-7c46-4b0b-9006-c13eeb259357,.ae5150ca-2efe-472e-b48b-83da3f25fb9e,.b5aa5269-d5b5-46dc-b597-7cb221e6e6df,.cb5c438e-8c87-46db-a014-501d37d114b7,.d16fd1e5-d70c-496c-b670-7173684873fc,.dc70b717-a552-458f-a116-aa25a4ffa506,.e450857f-7020-4efe-bc4f-5db2abcf7bb0,.e789155f-cc83-41e2-96e4-3cfe0af64ff6,.f3aac2f3-ed99-4e14-b0e6-39952e562aac,.f45367f3-c97d-436b-8d80-ff575ab4d311{stroke-miterlimit:10;}.\30 7648f8a-532f-4fe6-8520-c3bc62880d87,.\31 dbbef63-b309-4f21-bd1c-13e7d95ebb61,.\34 2cc3af0-4131-4343-a1b5-16b795ff5e71,.\37 ac89fa6-c447-4245-a1f8-2487263c4a05,.\37 c4e1506-ed23-42da-80df-641a238e7a07,.\38 035fb13-5938-4353-8232-9a48da3779de,.\38 0887171-084f-4cc7-b2af-68cf8bd792e7,.\38 f6559aa-3702-40e2-b6a8-89da36ec67b9,.\39 dd98283-8a5c-41b6-b881-3d821b83fbfd,.f3aac2f3-ed99-4e14-b0e6-39952e562aac{stroke-width:5px;}.\35 90b183d-fe71-41fd-aa7b-2d5634acb4b1,.dc70b717-a552-458f-a116-aa25a4ffa506{fill:#e5c6ba;}.\30 9e3a56f-cdd2-483c-8f97-8b12f52563f7,.\33 204b854-1508-44fc-9fc4-f3a1b6a1905d,.\33 74055b0-4a8c-4355-818c-c51c8085e0d4,.\33 a4b4811-0e06-4d5c-83e7-7d0b17cb5985,.\34 1852fdc-7ca5-4c99-bf36-c9f5a1ea7292,.\34 8edf599-ae07-4aa9-81e0-ff3dc59c90cc,.\35 24f7e48-e603-40f6-821f-e53513f9a865,.\35 728252f-61a1-44e4-8531-b45ff63bec78,.\36 0bcf9e8-20f2-4dea-a6af-cbffea2429a1,.\39 0c40412-1083-4aae-a045-9b04d1d92341,.\39 eefa39d-ce54-443a-b5e3-776a77098728,.a22a0936-7c46-4b0b-9006-c13eeb259357,.ae5150ca-2efe-472e-b48b-83da3f25fb9e,.b5aa5269-d5b5-46dc-b597-7cb221e6e6df,.cb5c438e-8c87-46db-a014-501d37d114b7,.d16fd1e5-d70c-496c-b670-7173684873fc,.dc70b717-a552-458f-a116-aa25a4ffa506,.e450857f-7020-4efe-bc4f-5db2abcf7bb0,.e789155f-cc83-41e2-96e4-3cfe0af64ff6,.f45367f3-c97d-436b-8d80-ff575ab4d311{stroke-width:3px;}.\30 6f6d540-f0e3-4c54-9d22-5fe74018c30b,.\37 ac89fa6-c447-4245-a1f8-2487263c4a05,.e789155f-cc83-41e2-96e4-3cfe0af64ff6{fill:#c84b59;}.\34 2cc3af0-4131-4343-a1b5-16b795ff5e71,.ae5150ca-2efe-472e-b48b-83da3f25fb9e{fill:#fff;}.\34 1852fdc-7ca5-4c99-bf36-c9f5a1ea7292,.\37 c4e1506-ed23-42da-80df-641a238e7a07{fill:#ffd940;}.\33 74055b0-4a8c-4355-818c-c51c8085e0d4{fill:#ead1b9;}.d16fd1e5-d70c-496c-b670-7173684873fc{stroke-dasharray:21.41 16.06;}.\36 0bcf9e8-20f2-4dea-a6af-cbffea2429a1{fill:#fb921f;}.\33 204b854-1508-44fc-9fc4-f3a1b6a1905d{fill:#ffe36e;}.\35 24f7e48-e603-40f6-821f-e53513f9a865{stroke-dasharray:9.29 4.64;}.\33 a4b4811-0e06-4d5c-83e7-7d0b17cb5985{fill:#19cace;}.\30 7648f8a-532f-4fe6-8520-c3bc62880d87{fill:#a4d018;}.cb5c438e-8c87-46db-a014-501d37d114b7{fill:#641bcc;}.\38 0887171-084f-4cc7-b2af-68cf8bd792e7,.e450857f-7020-4efe-bc4f-5db2abcf7bb0{fill:#cc1f3c;}.\34 8edf599-ae07-4aa9-81e0-ff3dc59c90cc{fill:#b6cece;}.b5aa5269-d5b5-46dc-b597-7cb221e6e6df,.f3aac2f3-ed99-4e14-b0e6-39952e562aac{fill:#e0b119;}.\36 e24af6e-cc57-4b81-a650-56c98e4d5ba7{stroke-width:15px;}.\38 035fb13-5938-4353-8232-9a48da3779de{fill:#af6a25;}.\30 9e3a56f-cdd2-483c-8f97-8b12f52563f7,.a22a0936-7c46-4b0b-9006-c13eeb259357{fill:#ffce00;}.\39 0c40412-1083-4aae-a045-9b04d1d92341{fill:#eaeaea;}.\38 f6559aa-3702-40e2-b6a8-89da36ec67b9{fill:#d83030;}.f45367f3-c97d-436b-8d80-ff575ab4d311{fill:#912338;}.\30 9e3a56f-cdd2-483c-8f97-8b12f52563f7{stroke-linejoin:round;}</style></defs><title>rugrats-tshirt-design</title><g id="e2effaff-8281-4d97-961d-8a18031be1c0" data-name="Layer 2"><g id="d588d81e-0654-4a5b-bbce-def36dc0562b" data-name="Layer 9"><polygon class="6d29ccbd-6310-4ac8-b461-6b904f9968e4" points="0 1439.65 366.19 1887.03 277.81 2203.05 547.27 2107.09 701.71 2588.67 1136.22 2052.77 1283.59 2143.06 1442.54 1869.79 1942.72 1799.73 1800.38 1601.22 2512.31 1522.91 2180.77 1269.78 2386.56 997.02 2023.39 810.41 1928.67 268.17 1416.26 769.55 1233.85 633.05 1028.62 978.34 859.76 884.05 758.88 1150.38 403.71 1108.61 454.94 1337.99 0 1439.65"/></g><g id="68382960-85c5-43ae-9d0c-683ef1c4c8cf" data-name="Layer 2"><path class="9dd98283-8a5c-41b6-b881-3d821b83fbfd" d="M1530.09,1146.52l3.72,9.34a23.5,23.5,0,0,0,3.16-3.28A28.48,28.48,0,0,0,1530.09,1146.52Z"/><path class="dc70b717-a552-458f-a116-aa25a4ffa506" d="M1009.61,793.73a10.54,10.54,0,0,0-9.83-6.73h0a10.56,10.56,0,0,1-10.56-10.57V749.56A10.56,10.56,0,0,0,978.65,739h-1.54a10.56,10.56,0,0,0-10.56,10.56v26.87A10.57,10.57,0,0,1,956,787h0a10.63,10.63,0,0,0-10.5,11.76c2.38,21.63,9.73,36.24,32.42,36.24s30-14.6,32.39-36.23A10.62,10.62,0,0,0,1009.61,793.73Z"/><path class="dc70b717-a552-458f-a116-aa25a4ffa506" d="M1067.38,595.83c0-51.09-37.42-90.5-88.5-90.5s-90.5,39.41-90.5,90.5c0,27.47,29.33,154.17,90.5,151.5C1036.32,744.82,1067.38,623.3,1067.38,595.83Z"/><path class="e789155f-cc83-41e2-96e4-3cfe0af64ff6" d="M947,711c11-12,23.34-20.67,28-18.67s8,6.67,12.67,3.33,12-6.24,18.67-3.62,9,7,11.33,9-20.33,1-35.33,4S947,711,947,711Z"/><path class="e789155f-cc83-41e2-96e4-3cfe0af64ff6" d="M1011.1,702.38a30.94,30.94,0,0,1-25.47,19c-19.5,2.12-33.93-11-33.93-11"/><path class="9eefa39d-ce54-443a-b5e3-776a77098728" d="M980.4,649.08s-4.86,12.08-8.36,14.58,5.71,6.17,9.36,5"/><circle cx="950.46" cy="534.22" r="2.14"/><circle cx="929.84" cy="539.57" r="2.14"/><circle cx="916.05" cy="553.32" r="2.14"/><circle cx="957.38" cy="523.55" r="2.14"/><circle cx="971.77" cy="532.09" r="2.14"/><circle cx="984.13" cy="523.55" r="2.14"/><circle cx="994.25" cy="534.42" r="2.14"/><circle cx="1005.94" cy="528.92" r="2.14"/><circle cx="1021.75" cy="526.79" r="2.14"/><circle cx="1026.02" cy="536.56" r="2.14"/><circle cx="1014.71" cy="540.83" r="2.14"/><circle cx="972.88" cy="515.19" r="2.14"/><ellipse class="ae5150ca-2efe-472e-b48b-83da3f25fb9e" cx="1014.72" cy="637.74" rx="15.36" ry="23.56" transform="translate(90.65 1400.93) rotate(-71.7)"/><path class="590b183d-fe71-41fd-aa7b-2d5634acb4b1" d="M997.16,616.37S991,626.14,991,629.84c0,8.67,4.17-5.72,25.39.32,20.5,5.84,21.34,15,21.5,11.34.23-5.43-7.71-16.76-9.75-19.42"/><path d="M997.16,616.37a83.58,83.58,0,0,0-4.64,10.36,13.09,13.09,0,0,0-.63,2.6,7.91,7.91,0,0,0,.23,2.43c0,.14.12.12,0,0s-.17,0,0-.1a8,8,0,0,0,1.08-.53c.81-.45,1.67-.94,2.56-1.38a23.28,23.28,0,0,1,5.66-2,27.25,27.25,0,0,1,6-.54,40.57,40.57,0,0,1,11.58,2.1,52.79,52.79,0,0,1,10.76,4.61,31.75,31.75,0,0,1,4.87,3.4,28.38,28.38,0,0,1,2.18,2.07c.34.36.68.74,1,1.11l.46.53.16.18s0,0-.07,0l-.12-.06-.24-.07a1.24,1.24,0,0,0-.46,0,1.27,1.27,0,0,0-.62.38l-.07.1-.08.15a.82.82,0,0,0,0,.11s0,0,0,0,0-.16,0-.27,0-.38,0-.58a9,9,0,0,0-.13-1.23,16.78,16.78,0,0,0-.7-2.58,43.25,43.25,0,0,0-2.18-5.14c-1.66-3.38-3.54-6.68-5.52-9.95a65.45,65.45,0,0,1,6.93,9.17,37.83,37.83,0,0,1,2.76,5.15,18.53,18.53,0,0,1,1,2.86,10.15,10.15,0,0,1,.27,1.59c0,.28,0,.59,0,.85s0,.27,0,.44a3,3,0,0,1,0,.33,1.67,1.67,0,0,1-.1.29,1.29,1.29,0,0,1-.12.23l-.1.13-.18.18a1.44,1.44,0,0,1-.54.27,1.5,1.5,0,0,1-.55,0,1.47,1.47,0,0,1-.33-.1.78.78,0,0,1-.19-.1,1.61,1.61,0,0,1-.35-.26l-.33-.33-.5-.54c-.31-.34-.62-.67-.94-1a24.73,24.73,0,0,0-2-1.79,36.36,36.36,0,0,0-4.57-3A56.13,56.13,0,0,0,1018,632.2a41.11,41.11,0,0,0-10.78-2.16,23.9,23.9,0,0,0-10.6,1.79c-.84.35-1.66.76-2.54,1.18a7.84,7.84,0,0,1-1.53.61,2,2,0,0,1-1.42-.15,1.84,1.84,0,0,1-.83-1.14,6.36,6.36,0,0,1-.17-1.66l0-.75a5.56,5.56,0,0,1,.08-.82,13.34,13.34,0,0,1,1-2.88A58.41,58.41,0,0,1,997.16,616.37Z"/><circle cx="1012.32" cy="639.41" r="3.42"/><path d="M1034.4,631.68c1-.79,1.8-1.4,2.62-2s1.6-1.17,2.44-1.7a24.23,24.23,0,0,1,2.66-1.51,14.51,14.51,0,0,1,3.21-1.21l.15.14a21,21,0,0,1-2.34,2.28,26.21,26.21,0,0,1-2.6,2,18.71,18.71,0,0,1-2.92,1.5,10.15,10.15,0,0,1-3.21.7Z"/><path d="M1035,634.9c1-.8,1.87-1.37,2.71-1.93s1.62-1.13,2.46-1.66a27.27,27.27,0,0,1,2.67-1.51,17.1,17.1,0,0,1,3.18-1.3l.16.13a21.9,21.9,0,0,1-4.94,4.37,17.5,17.5,0,0,1-3,1.46,11,11,0,0,1-3.25.64Z"/><path d="M1036.1,639.11c1.12-.79,2.05-1.4,3-2s1.85-1.18,2.81-1.71a28.38,28.38,0,0,1,3-1.52,17.1,17.1,0,0,1,3.5-1.2l.14.14a28.43,28.43,0,0,1-5.67,4.32,22.84,22.84,0,0,1-3.27,1.47,12.82,12.82,0,0,1-3.52.67Z"/><path class="9eefa39d-ce54-443a-b5e3-776a77098728" d="M1050.74,610.33c-12.83-12.67-30.5-18.5-45.33-14.67"/><ellipse class="ae5150ca-2efe-472e-b48b-83da3f25fb9e" cx="949.42" cy="636.68" rx="23.56" ry="15.36" transform="translate(-151.89 330.27) rotate(-18.3)"/><path class="590b183d-fe71-41fd-aa7b-2d5634acb4b1" d="M967,615.31s6.13,9.77,6.14,13.47c0,8.67-4.17-5.71-25.39.32-20.5,5.84-21.34,15-21.5,11.34C926,635,934,623.68,936,621"/><path d="M967,615.31a59,59,0,0,1,6,9.85,12.82,12.82,0,0,1,1,2.88,5.56,5.56,0,0,1,.09.82v.75a6.47,6.47,0,0,1-.17,1.67,1.87,1.87,0,0,1-.82,1.13,2,2,0,0,1-1.43.15,8.1,8.1,0,0,1-1.53-.61c-.88-.42-1.7-.83-2.54-1.18A24,24,0,0,0,956.92,629a41.35,41.35,0,0,0-10.78,2.16,56.22,56.22,0,0,0-10.23,4.28,36.25,36.25,0,0,0-4.56,3,25,25,0,0,0-2,1.79c-.33.32-.64.65-1,1l-.49.54-.33.33a2.39,2.39,0,0,1-.35.26.9.9,0,0,1-.2.1,1.31,1.31,0,0,1-.33.1,1.44,1.44,0,0,1-.54,0,1.37,1.37,0,0,1-.54-.27,1.11,1.11,0,0,1-.19-.18l-.09-.13a1.59,1.59,0,0,1-.13-.23,1.47,1.47,0,0,1-.09-.29,1.8,1.8,0,0,1-.06-.33c0-.17,0-.31,0-.44a8.17,8.17,0,0,1,0-.85,11.46,11.46,0,0,1,.27-1.59,18.53,18.53,0,0,1,1-2.86,39.6,39.6,0,0,1,2.76-5.15A65.52,65.52,0,0,1,936,621c-2,3.27-3.87,6.57-5.53,10a45,45,0,0,0-2.18,5.14,15.67,15.67,0,0,0-.69,2.58,6.68,6.68,0,0,0-.13,1.23c0,.2,0,.37,0,.58s0,.21,0,.27,0,.05,0,0a.82.82,0,0,0,0-.11.54.54,0,0,0-.08-.15.86.86,0,0,0-.07-.1l-.15-.15a1.15,1.15,0,0,0-.47-.23,1.18,1.18,0,0,0-.45,0l-.25.07-.11.06c-.11.07-.08.05-.08,0L926,640l.45-.53c.32-.37.65-.75,1-1.11a24.82,24.82,0,0,1,2.17-2.06,31.61,31.61,0,0,1,4.87-3.41,53,53,0,0,1,10.76-4.61,40.58,40.58,0,0,1,11.59-2.1,27.16,27.16,0,0,1,6,.54,23.28,23.28,0,0,1,5.66,2c.89.44,1.75.93,2.56,1.38a8.66,8.66,0,0,0,1.08.53c.15.06.14,0,0,.1s-.08.13,0,0a7.62,7.62,0,0,0,.23-2.43,13,13,0,0,0-.62-2.6A86.65,86.65,0,0,0,967,615.31Z"/><circle cx="951.82" cy="638.35" r="3.42"/><path d="M929.73,630.82a5.66,5.66,0,0,1-3.67.47,9.11,9.11,0,0,1-3.32-1.32,9.92,9.92,0,0,1-2.55-2.37,7.61,7.61,0,0,1-1.53-3.24l.15-.14c.76.76,1.58,1.48,2.4,2.17a25.06,25.06,0,0,0,2.61,1.89,18.43,18.43,0,0,0,2.83,1.53,12.36,12.36,0,0,0,3.09.81Z"/><path d="M929.1,634a5.86,5.86,0,0,1-3.69.54,9,9,0,0,1-3.4-1.28,9.79,9.79,0,0,1-2.6-2.41,7.25,7.25,0,0,1-1.48-3.32l.15-.13a28,28,0,0,0,2.37,2.25,23.59,23.59,0,0,0,2.63,1.92,17.41,17.41,0,0,0,2.88,1.48,14.17,14.17,0,0,0,3.15.75Z"/><path d="M928,638.25a6.61,6.61,0,0,1-3.93.52,10.45,10.45,0,0,1-3.64-1.27,11.39,11.39,0,0,1-2.94-2.37,8.48,8.48,0,0,1-1.95-3.34l.14-.14c.88.78,1.81,1.51,2.76,2.21a31.08,31.08,0,0,0,3,1.9,22.65,22.65,0,0,0,3.19,1.51,16,16,0,0,0,3.42.78Z"/><path class="9eefa39d-ce54-443a-b5e3-776a77098728" d="M913.41,609.27c12.83-12.67,30.5-18.5,45.33-14.67"/><path class="9dd98283-8a5c-41b6-b881-3d821b83fbfd" d="M916.07,547.46c-.83-2.76-9.52-16.86-14.82-22.68l-21.19,3.14,3.66-21.28-20,3-2.81-18.94-16,2.37-4-27.05-21.31,3.16-4.22-28.4"/><path class="9dd98283-8a5c-41b6-b881-3d821b83fbfd" d="M846.51,420.55C857,427,863.36,428,861.58,433.5s-3.13,21.24-3.13,21.24l17.17,1.45,3.51,23.45,23.12,3,.72,24.75,18.32-2.72-2.66,21.09,15.8,5.5"/><polyline class="9dd98283-8a5c-41b6-b881-3d821b83fbfd" points="947.1 524.29 945.54 502.4 930.44 499.81 935.83 479.65 912.42 474.83 914.98 452.33 894.56 455.36 896.26 436.45 882.66 425.33 882.89 401.8"/><path class="41852fdc-7ca5-4c99-bf36-c9f5a1ea7292" d="M896.38,591.66s-31.49,10-60.28,8.28c-25.37-1.51-98-2.15-98-2.15s15.23,11.12,20,14.87-15,6.17-15,6.17,3.82,7.65,12.16,8.06-8.55,8.6-8.55,8.6A65.1,65.1,0,0,0,761,642.33c7.57,2.35-16.16,10.67-16.16,10.67l21.41,3.67s-27.76,15.91-17.4,13.83,61.11-20.62,77.8-23.14,73.16-11.5,73.16-11.5"/><path class="41852fdc-7ca5-4c99-bf36-c9f5a1ea7292" d="M986.26,513.06S996.4,470.33,996.39,461s-24.29-23.67-22.49-39.17,12.36-64.17,12.36-64.17,2.09,9,4.45,11.34,6.83-7.67,6.83-7.67,1,11.41,2.84,15c3.42,6.5,8.53-24.67,8.53-24.67s12.84,11,6.63,23c-2.43,4.71-12.31,21.34-11.74,29s6.86,27.88,11.28,35.17c8.81,14.5-9.14,74.23-9.14,74.23"/><path class="41852fdc-7ca5-4c99-bf36-c9f5a1ea7292" d="M1037.91,534.42s18.8-21.76,29.47-40.09,22-62,30.33-72.5,38.67-43.5,38.67-43.5-14.34,32.33-9.34,28,22-18,20-14.67-26.33,30.34-18.66,26S1160.38,398,1157,403s-21,20.83-18.66,23.33,16.17-6.5,20.83-8.17-23.83,23.5-17.5,23.17,25.67-20.17,22.67-11.83-23.67,28.59-12,26.88,20.66-14.38,16-5.38-12.67,27.33-28,33.33-40,38.85-59.34,50.09S1048.5,551,1048.5,551"/><path class="41852fdc-7ca5-4c99-bf36-c9f5a1ea7292" d="M1059.38,581.22c27.5-3.5,91.5-24,123-26s47,0,47,0-28.5,9.61-18,12.56,28.5,5.05,22,7.55-17.31,7.64-28.75,9.33c-11.25,1.67,7.31,1.18,16.41,6,10.14,5.38-8.62,8.4-11.66,9-7,1.38,14.64,2.71,17.33,6.34s-13.43,6.39-7.33,8.27c15.33,4.73,18,4,22,5s-46.28,14.4-67.89,11.45-65.11-.11-84.11,3.22a50.8,50.8,0,0,1-32.88-5.17"/><path class="374055b0-4a8c-4355-818c-c51c8085e0d4" d="M865.5,1089.16s-3,16.1-9.55,30.33c-4,8.6-2.2,32.87-6.58,33.07s-9-7.44-6.23-19.23,6-26.53,6-26.53Z"/><path class="374055b0-4a8c-4355-818c-c51c8085e0d4" d="M838.9,1157.76c3.56-.07,6.37-9,6.36-15.15s3.76-30.72,3.76-30.72l-8.94-5.27-7.9,35.18S830.68,1157.93,838.9,1157.76Z"/><path class="374055b0-4a8c-4355-818c-c51c8085e0d4" d="M830.43,1161.41c3.46.48,7-6.89,5.91-16-2.17-19.11,8.31-34.74,8.31-34.74l-19.21,16S818.87,1159.79,830.43,1161.41Z"/><path class="dc70b717-a552-458f-a116-aa25a4ffa506" d="M852.76,1107.81c15.66-10,14.87-29.07,10.84-34.57-1.71-10.82-.71-90.66-2.61-114.21-.71-8.81,21.58-36.34,30.13-50.86,19.68-33.44,23.34-28.72,37.77-59.53,8.66-18.5,14.35-28.29,7.37-32.54-20.66-12.53-46.37,15.1-64.14,47s-45.46,69.51-45.72,92.47c-.16,14.3,11.5,54.63,13.87,92.61.88,14.11,2.48,17-.11,21.12-30.62,48.14-22.85,85-18.6,86.14,9.12,2.53,4.58-11.66,6.11-19.45.61-3.09-.12-6.76,2-8.63,10.58-9.52,4.09-13.08,7.35-20.67,1.44-3.35,3.25,6.1,5.91,6.57C847.32,1114,852.76,1107.81,852.76,1107.81Z"/><path class="e789155f-cc83-41e2-96e4-3cfe0af64ff6" d="M827.59,1113.91c-13,6.1-56.74,95.3-56.74,95.3l26.51-17.2s21.72-72.18,34-78.83S827.59,1113.91,827.59,1113.91Z"/><path class="e789155f-cc83-41e2-96e4-3cfe0af64ff6" d="M841,1116.34s-1.48,10.15-3.63,28.5c-1.43,12.16-10.29,28.45-10.29,28.45l13.85-7.94s10-45.55,6.6-47.2A18.93,18.93,0,0,0,841,1116.34Z"/><path class="e789155f-cc83-41e2-96e4-3cfe0af64ff6" d="M770.85,1209.21l26.51-17.2,29.72-18.72,13.85-7.94a80.11,80.11,0,0,1,22.63,4.41c9.59,3.42,8.76,10.19,8.76,10.19s-6.62,9.63-11.35,14.25c-7.51,7.34-32,32.62-32,32.62l-14.12,15.24-70.77-18Z"/><path class="e789155f-cc83-41e2-96e4-3cfe0af64ff6" d="M888.5,1249.78c2.55,21.33-85.67,94.5-85.67,94.5l12-102.22L872.32,1180Z"/><path class="e789155f-cc83-41e2-96e4-3cfe0af64ff6" d="M802.83,1344.28a243.78,243.78,0,0,1-45.86-8.13c-27.28-7.57-44.88-19.32-44.88-19.32s-4.78-9.44,7.4-42.55c5.47-14.89,24.59-50.25,24.59-50.25l70.77,18s-1.73,45.61-4,68.33A129.12,129.12,0,0,1,802.83,1344.28Z"/><path class="e789155f-cc83-41e2-96e4-3cfe0af64ff6" d="M865.26,1187.57s-3.44-23-7.73-34.85-12.85-34.24-12.85-34.24l2.7-4.9s13.7,29.91,20.14,47.79c5.69,15.81,4.8,18.58,4.8,18.58Z"/><path class="e789155f-cc83-41e2-96e4-3cfe0af64ff6" d="M836.36,1110.53s-5.46,2.89-9.45,17.29-12.06,114.24-12.06,114.24L829,1226.82s-3.83-28.43-2.43-54.51C827.85,1147.9,836.36,1110.53,836.36,1110.53Z"/><path class="374055b0-4a8c-4355-818c-c51c8085e0d4" d="M835.75,1104.23s.91,19.64,1.26,29.92c.14,4.08,12.07-3.54,11.81-13-.33-11.5,3.94-13.35,3.94-13.35"/><path class="e789155f-cc83-41e2-96e4-3cfe0af64ff6" d="M748.26,1261.51s-16.48,23.83-7.83,40c2.88,5.38,33.52,14.37,37.48,11.32,12.79-9.85,13.7-39.26,13.7-39.26Z"/><path class="06f6d540-f0e3-4c54-9d22-5fe74018c30b" d="M749.64,1264.87S736,1286.48,742,1298.79c4.53,9.31,31.35,13.18,34.23,11.61,11.44-6.23,12.16-34.16,12.16-34.16"/><path class="9eefa39d-ce54-443a-b5e3-776a77098728" d="M749.64,1264.87a77.71,77.71,0,0,0-4.63,8.86"/><path class="d16fd1e5-d70c-496c-b670-7173684873fc" d="M740.58,1289.1a18.37,18.37,0,0,0,1.41,9.69c4.53,9.31,31.35,13.18,34.23,11.61,5-2.71,7.92-9.5,9.66-16.33"/><path class="9eefa39d-ce54-443a-b5e3-776a77098728" d="M787.43,1286.2a90.62,90.62,0,0,0,1-10"/><path class="60bcf9e8-20f2-4dea-a6af-cbffea2429a1" d="M1071.79,1086.12l-6.69-16.77-2.6-6.52-46-116.5s1.6-24.54,5.08-46.79c1-6.68,2.26-13.16,3.65-18.71,6-24,7.3-41.5,21.3-63.85,2.15-3.42,2.28-6.39,1.12-9-4.76-10.55-31.43-14.29-31.43-14.29h-6.58a10.62,10.62,0,0,1,.67,5c-2.4,21.63-9.77,36.23-32.39,36.23s-30-14.61-32.42-36.24a10.56,10.56,0,0,1,.68-5H935.69S909,797.47,904.26,808c-1.16,2.57-1,5.54,1.12,9,14,22.35,15.27,39.85,21.3,63.85,1.39,5.55,2.61,12,3.65,18.71,3.48,22.25,5.08,46.79,5.08,46.79l-45.91,116.5-2.59,6.52-6.69,16.77-1,2.49c11.49,11.42,50.46,19.82,96.77,19.82s85.29-8.4,96.78-19.82Z"/><path class="e789155f-cc83-41e2-96e4-3cfe0af64ff6" d="M1010.67,785.32c-1.17-.32-9,0-8.87,2.32.24,3.45,6.18,3,7.57,6a10.64,10.64,0,0,1,.89,5.57c-.25,2.18-.54,4.28-.89,6.3-3.16,18.12-11.16,29.93-31.51,29.93s-28.3-11.69-31.47-29.64q-.57-3.18-.94-6.6a10.52,10.52,0,0,1,.94-5.65c1.4-3,7.31-2.48,7.55-5.91.16-2.28-7.69-2.63-8.85-2.31-4.34,1.16-8.58,4.11-9.4,8.41-.64,3.33,0,13.54,0,13.54,1.46,9.18,3.8,17.2,7.55,23.67,6.47,11.15,17.11,17.73,34.65,17.73s28.13-6.58,34.6-17.74c3.76-6.48,6.11-14.51,7.58-23.7,0,0,.63-10.18,0-13.5C1019.25,789.43,1015,786.48,1010.67,785.32Z"/><path class="e789155f-cc83-41e2-96e4-3cfe0af64ff6" d="M1125.74,1222.33a19.46,19.46,0,0,1-1.21,1.62c-15.16,18.53-76.88,32.41-150.72,32.41S840.44,1242.48,825.28,1224c-.44-.53,2.62-5.12,2.26-5.67-1.56,2.35-8,8.82-8,11.29a11.24,11.24,0,0,0,.31,2.58c5,21.59,72,38.68,154,38.68s149-17.09,154-38.68a11.24,11.24,0,0,0,.31-2.58A13,13,0,0,0,1125.74,1222.33Z"/><path class="60bcf9e8-20f2-4dea-a6af-cbffea2429a1" d="M1124.47,1218.28l-8.11-20.35-10.21-25.62c-3.23,5-10.4,9.66-20.64,13.71a177.69,177.69,0,0,1-29.24,8.3c-22.24,4.56-50.07,7.27-80.27,7.27s-58-2.71-80.27-7.27a178.26,178.26,0,0,1-29.24-8.3c-10.23-4-17.4-8.7-20.63-13.71l-10.21,25.62-8.11,20.35-2.26,5.67c15.16,18.53,76.88,32.41,150.72,32.41s135.57-13.88,150.73-32.41Z"/><path class="e789155f-cc83-41e2-96e4-3cfe0af64ff6" d="M1105.33,1159.08a23.4,23.4,0,0,1-3.15,3.28c-8.16,7-24.34,13.13-45.68,17.52-22.28,4.59-50.19,7.32-80.5,7.32s-58.21-2.73-80.49-7.32c-21.34-4.39-37.52-10.48-45.68-17.52a23.5,23.5,0,0,1-3.16-3.28,11.75,11.75,0,0,0-2.74,7.19,11.11,11.11,0,0,0,1.93,6c3.23,5,10.4,9.66,20.63,13.71a178.26,178.26,0,0,0,29.24,8.3c22.25,4.56,50.08,7.27,80.27,7.27s58-2.71,80.27-7.27a177.69,177.69,0,0,0,29.24-8.3c10.24-4,17.41-8.7,20.64-13.71a11.11,11.11,0,0,0,1.93-6A11.71,11.71,0,0,0,1105.33,1159.08Z"/><path class="60bcf9e8-20f2-4dea-a6af-cbffea2429a1" d="M1098.46,1153l-7.37-18.47-15.23-38.23c-3.12,9.82-26,18.12-58,22.06a359.26,359.26,0,0,1-83.77,0c-32-3.94-54.86-12.24-58-22.06l-15.23,38.23L853.55,1153l-3.72,9.34c8.16,7,24.34,13.13,45.68,17.52,22.28,4.59,50.19,7.32,80.49,7.32s58.22-2.73,80.5-7.32c21.34-4.39,37.52-10.48,45.68-17.52Z"/><path class="e789155f-cc83-41e2-96e4-3cfe0af64ff6" d="M1073.52,1087.83c-.23.26-.48.52-.74.78-11.49,11.42-50.46,19.82-96.78,19.82s-85.28-8.4-96.77-19.82c-.26-.26-.51-.52-.74-.78a9.36,9.36,0,0,0-2.71,6.2,7.51,7.51,0,0,0,.37,2.29c3.11,9.82,26,18.12,58,22.06a359.26,359.26,0,0,0,83.77,0c32-3.94,54.85-12.24,58-22.06a7.82,7.82,0,0,0,.36-2.29A9.34,9.34,0,0,0,1073.52,1087.83Z"/><path class="9dd98283-8a5c-41b6-b881-3d821b83fbfd" d="M1071.79,1086.12l1,2.49c.26-.26.51-.52.74-.78A17.52,17.52,0,0,0,1071.79,1086.12Z"/><path class="9dd98283-8a5c-41b6-b881-3d821b83fbfd" d="M1052.62,1024.88,1048,1017c0-4.11-32.21-7.45-72-7.45s-72,3.34-72,7.45l-4.66,7.85a1.31,1.31,0,0,0-.57.95c0,4.42,34.56,8,77.18,8s77.19-3.58,77.19-8A1.35,1.35,0,0,0,1052.62,1024.88Z"/><circle class="9dd98283-8a5c-41b6-b881-3d821b83fbfd" cx="976" cy="1021.7" r="22.12"/><circle class="9dd98283-8a5c-41b6-b881-3d821b83fbfd" cx="976" cy="1021.7" r="15.07"/><path class="e789155f-cc83-41e2-96e4-3cfe0af64ff6" d="M905.38,817a11,11,0,0,1-1.12-10c-3.75-3-9.13-2.61-13.53-.07h0a12,12,0,0,0-4.39,16.39l43,76.2c-1-6.68-1.26-13.16-2.65-18.71C920.65,856.83,919.38,839.33,905.38,817Z"/><path class="e789155f-cc83-41e2-96e4-3cfe0af64ff6" d="M1061.15,807h0c-4.4-2.54-9.78-2.94-13.53.07a11,11,0,0,1-1.12,10c-14,22.35-15.27,39.85-21.3,63.85-1.39,5.55-1.61,12-2.65,18.71l43-76.2A12,12,0,0,0,1061.15,807Z"/><path class="9dd98283-8a5c-41b6-b881-3d821b83fbfd" d="M887.2,1256.36s3,79.44,12.45,106.44c3.53,10.07,4.7,62.81,7.1,79.16,5,34.27,8.14,65.29-2,81.5-5.87,9.35-43.08,22.45-33.34,29,22.3,15,67.84-18.5,75.84-29s-8-15.44-1.87-40c17-68.16,2.51-96.26,2.51-96.26l12-130.84"/><path class="9dd98283-8a5c-41b6-b881-3d821b83fbfd" d="M949.06,1514.38s7.41,14.61,8.2,24.11-5.29,9.5-35.28,27-64.51,18.5-77.51,9,38.59-36,38.59-36"/><path class="dc70b717-a552-458f-a116-aa25a4ffa506" d="M1008.23,792.64a10.54,10.54,0,0,0-9.82-6.74h0a10.56,10.56,0,0,1-10.57-10.56V748.47a10.56,10.56,0,0,0-10.56-10.57h-1.54a10.56,10.56,0,0,0-10.56,10.57v26.87a10.56,10.56,0,0,1-10.57,10.56h0a10.64,10.64,0,0,0-10.5,11.77c2.38,21.63,9.73,36.23,32.41,36.23s30-14.59,32.4-36.22A10.62,10.62,0,0,0,1008.23,792.64Z"/><path class="dc70b717-a552-458f-a116-aa25a4ffa506" d="M1066,594.74c0-51.09-37.41-90.5-88.5-90.5S887,543.65,887,594.74c0,27.47,29.34,154.16,90.5,151.5C1035,743.73,1066,622.21,1066,594.74Z"/><path class="e789155f-cc83-41e2-96e4-3cfe0af64ff6" d="M945.67,709.9c11-12,23.33-20.66,28-18.66s8,6.66,12.67,3.33,12-6.24,18.66-3.62,9,7,11.34,9-20.34,1-35.34,4S945.67,709.9,945.67,709.9Z"/><path class="e789155f-cc83-41e2-96e4-3cfe0af64ff6" d="M1009.73,701.29a31,31,0,0,1-25.48,19c-19.5,2.12-33.92-11-33.92-11"/><path class="9eefa39d-ce54-443a-b5e3-776a77098728" d="M979,648s-4.86,12.08-8.36,14.58,5.71,6.17,9.36,5"/><circle cx="949.09" cy="533.13" r="2.14"/><circle cx="928.46" cy="538.48" r="2.14"/><circle cx="914.67" cy="552.23" r="2.14"/><circle cx="956" cy="522.46" r="2.14"/><circle cx="970.4" cy="531" r="2.14"/><circle cx="982.75" cy="522.46" r="2.14"/><circle cx="992.88" cy="533.33" r="2.14"/><circle cx="1004.57" cy="527.83" r="2.14"/><circle cx="1020.38" cy="525.7" r="2.14"/><circle cx="1024.65" cy="535.47" r="2.14"/><circle cx="1013.34" cy="539.74" r="2.14"/><circle cx="971.5" cy="514.1" r="2.14"/><ellipse class="ae5150ca-2efe-472e-b48b-83da3f25fb9e" cx="1013.35" cy="636.65" rx="15.36" ry="23.56" transform="translate(90.74 1398.88) rotate(-71.7)"/><path class="590b183d-fe71-41fd-aa7b-2d5634acb4b1" d="M995.79,615.28s-6.14,9.77-6.15,13.47c0,8.67,4.18-5.72,25.39.32,20.5,5.83,21.34,15,21.5,11.33.24-5.42-7.71-16.75-9.74-19.41"/><path d="M995.79,615.28a83.58,83.58,0,0,0-4.64,10.36,13.09,13.09,0,0,0-.63,2.6,7.62,7.62,0,0,0,.23,2.43c0,.14.11.12,0,0s-.18,0,0-.09a8.66,8.66,0,0,0,1.08-.53c.81-.45,1.67-.95,2.56-1.38a23.28,23.28,0,0,1,5.66-2,27.21,27.21,0,0,1,6-.54,40.58,40.58,0,0,1,11.59,2.1,53,53,0,0,1,10.76,4.61,32.25,32.25,0,0,1,4.87,3.4,28.38,28.38,0,0,1,2.18,2.07c.34.36.67.74,1,1.11l.45.53.17.18-.07,0-.12-.06-.24-.07a1.23,1.23,0,0,0-.46,0,1.16,1.16,0,0,0-.46.23.78.78,0,0,0-.16.15l-.07.09a1.09,1.09,0,0,0-.08.16.82.82,0,0,0,0,.11v0c0-.06,0-.16,0-.27a5.72,5.72,0,0,0,0-.58,7.64,7.64,0,0,0-.12-1.23,16.78,16.78,0,0,0-.7-2.58,45,45,0,0,0-2.18-5.14c-1.66-3.38-3.55-6.69-5.52-10a65.45,65.45,0,0,1,6.93,9.17,39,39,0,0,1,2.76,5.15,18.53,18.53,0,0,1,1,2.86,10.15,10.15,0,0,1,.27,1.59c0,.28,0,.59,0,.85s0,.27,0,.44a1.8,1.8,0,0,1-.06.33,1.47,1.47,0,0,1-.09.29s-.06.13-.12.23l-.1.13a1.7,1.7,0,0,1-.19.18,1.37,1.37,0,0,1-.54.27,1.44,1.44,0,0,1-.54,0,1.47,1.47,0,0,1-.33-.1.78.78,0,0,1-.19-.1,2.89,2.89,0,0,1-.36-.26l-.33-.34-.49-.53c-.31-.35-.62-.67-.94-1a24.73,24.73,0,0,0-2-1.79,36,36,0,0,0-4.57-3,56,56,0,0,0-10.23-4.29,41.34,41.34,0,0,0-10.77-2.15,23.9,23.9,0,0,0-10.6,1.79c-.84.35-1.66.76-2.54,1.18a7.84,7.84,0,0,1-1.53.61,2,2,0,0,1-1.42-.15,1.84,1.84,0,0,1-.83-1.14,6.36,6.36,0,0,1-.17-1.66v-.75a5.85,5.85,0,0,1,.09-.83,13.44,13.44,0,0,1,1-2.87A58,58,0,0,1,995.79,615.28Z"/><circle cx="1010.95" cy="638.32" r="3.42"/><path d="M1033,630.59c1-.79,1.8-1.4,2.62-2s1.59-1.17,2.43-1.7a25.36,25.36,0,0,1,2.67-1.51,14.51,14.51,0,0,1,3.21-1.21l.15.14a21.9,21.9,0,0,1-2.34,2.28,25.21,25.21,0,0,1-2.61,2,18.28,18.28,0,0,1-2.92,1.5,10.31,10.31,0,0,1-3.2.7Z"/><path d="M1033.66,633.81c1-.8,1.87-1.37,2.71-1.94s1.63-1.12,2.47-1.65a28.23,28.23,0,0,1,2.67-1.52,17.11,17.11,0,0,1,3.18-1.29l.16.13a22.14,22.14,0,0,1-4.94,4.37,17.87,17.87,0,0,1-3,1.46,11,11,0,0,1-3.26.64Z"/><path d="M1034.73,638c1.12-.79,2-1.4,3-2s1.85-1.18,2.81-1.71a29.19,29.19,0,0,1,3-1.52,17.19,17.19,0,0,1,3.51-1.2l.14.14a28.43,28.43,0,0,1-5.67,4.32,22.84,22.84,0,0,1-3.27,1.47,12.82,12.82,0,0,1-3.52.67Z"/><path class="9eefa39d-ce54-443a-b5e3-776a77098728" d="M1049.37,609.24c-12.84-12.67-30.5-18.5-45.34-14.67"/><ellipse class="ae5150ca-2efe-472e-b48b-83da3f25fb9e" cx="948.05" cy="635.59" rx="23.56" ry="15.36" transform="translate(-151.61 329.78) rotate(-18.3)"/><path class="590b183d-fe71-41fd-aa7b-2d5634acb4b1" d="M965.61,614.22s6.14,9.77,6.15,13.47c0,8.67-4.18-5.72-25.39.32-20.5,5.84-21.34,15-21.5,11.34-.24-5.43,7.71-16.76,9.74-19.42"/><path d="M965.61,614.22a58,58,0,0,1,6,9.85,13.44,13.44,0,0,1,1,2.87,5.85,5.85,0,0,1,.09.83v.75a6.36,6.36,0,0,1-.17,1.66,1.84,1.84,0,0,1-.83,1.14,2,2,0,0,1-1.42.15,7.84,7.84,0,0,1-1.53-.61c-.88-.42-1.7-.83-2.54-1.18a23.9,23.9,0,0,0-10.6-1.79A41.34,41.34,0,0,0,944.77,630a56,56,0,0,0-10.23,4.29,37.1,37.1,0,0,0-4.57,3,24.73,24.73,0,0,0-2,1.79c-.32.32-.63.65-.94,1l-.49.53-.33.34a2.12,2.12,0,0,1-.36.26.78.78,0,0,1-.19.1,1.47,1.47,0,0,1-.33.1,1.44,1.44,0,0,1-.54,0,1.37,1.37,0,0,1-.54-.27A1.7,1.7,0,0,1,924,641l-.1-.13c-.06-.1-.1-.19-.12-.23a1.47,1.47,0,0,1-.09-.29,1.8,1.8,0,0,1-.06-.33,3.55,3.55,0,0,1,0-.44,8.17,8.17,0,0,1,0-.85,10.15,10.15,0,0,1,.27-1.59,18.53,18.53,0,0,1,1-2.86,39,39,0,0,1,2.76-5.15,65.45,65.45,0,0,1,6.93-9.17c-2,3.26-3.86,6.57-5.52,10a45,45,0,0,0-2.18,5.14,16.78,16.78,0,0,0-.7,2.58,7.64,7.64,0,0,0-.12,1.23,5.72,5.72,0,0,0,0,.58c0,.11,0,.21,0,.27v0a.82.82,0,0,0,0-.11.54.54,0,0,0-.08-.16l-.07-.09a.78.78,0,0,0-.16-.15,1.16,1.16,0,0,0-.46-.23,1.23,1.23,0,0,0-.46,0l-.24.07-.12.06-.07,0,.17-.18.45-.53c.32-.37.65-.75,1-1.11a28.38,28.38,0,0,1,2.18-2.07,32.25,32.25,0,0,1,4.87-3.4,53,53,0,0,1,10.76-4.61,40.58,40.58,0,0,1,11.59-2.1,27.21,27.21,0,0,1,6,.54,23.28,23.28,0,0,1,5.66,2c.89.44,1.75.93,2.56,1.38a8.66,8.66,0,0,0,1.08.53c.15.06.14,0,0,.09s-.08.14,0,0a7.62,7.62,0,0,0,.23-2.43,13.09,13.09,0,0,0-.63-2.6A83.58,83.58,0,0,0,965.61,614.22Z"/><circle cx="950.45" cy="637.26" r="3.42"/><path d="M928.36,629.73a5.66,5.66,0,0,1-3.67.47,9,9,0,0,1-3.32-1.32,9.76,9.76,0,0,1-2.55-2.37,7.5,7.5,0,0,1-1.53-3.24l.15-.14c.76.76,1.58,1.48,2.4,2.17a25.06,25.06,0,0,0,2.61,1.89,18,18,0,0,0,2.83,1.53,12.36,12.36,0,0,0,3.09.81Z"/><path d="M927.73,633a5.86,5.86,0,0,1-3.69.54,9,9,0,0,1-3.4-1.28,9.79,9.79,0,0,1-2.6-2.41,7.36,7.36,0,0,1-1.49-3.32l.16-.13a28,28,0,0,0,2.37,2.25,22.31,22.31,0,0,0,2.63,1.91,16.36,16.36,0,0,0,2.88,1.49,14,14,0,0,0,3.15.75Z"/><path d="M926.66,637.16a6.69,6.69,0,0,1-3.93.52,10.38,10.38,0,0,1-3.64-1.27,11.39,11.39,0,0,1-2.94-2.37,8.36,8.36,0,0,1-1.95-3.34l.14-.14c.88.78,1.81,1.51,2.76,2.21a28.76,28.76,0,0,0,3,1.9,22,22,0,0,0,3.18,1.51,16,16,0,0,0,3.42.78Z"/><path class="9eefa39d-ce54-443a-b5e3-776a77098728" d="M912,608.18c12.84-12.67,30.5-18.5,45.34-14.67"/><path class="9dd98283-8a5c-41b6-b881-3d821b83fbfd" d="M914.7,546.37c-.83-2.76-9.53-16.86-14.82-22.68l-21.19,3.14,3.65-21.28-20,3-2.81-18.94-16,2.37-4-27.05-21.31,3.16L814,439.66"/><path class="9dd98283-8a5c-41b6-b881-3d821b83fbfd" d="M845.13,419.46c10.49,6.43,16.86,7.49,15.07,13s-3.12,21.24-3.12,21.24l17.17,1.45,3.5,23.45,23.13,3,.72,24.75,18.32-2.72-2.66,21.09,15.79,5.5"/><polyline class="9dd98283-8a5c-41b6-b881-3d821b83fbfd" points="945.73 523.2 944.17 501.31 929.07 498.71 934.46 478.56 911.05 473.74 913.61 451.24 893.18 454.27 894.89 435.36 881.29 424.24 881.51 400.71"/><path class="3204b854-1508-44fc-9fc4-f3a1b6a1905d" d="M895,590.57s-31.48,10-60.28,8.28c-25.37-1.51-98-2.15-98-2.15s15.23,11.12,20,14.87-15,6.17-15,6.17,3.81,7.65,12.16,8.06-8.56,8.6-8.56,8.6a65.3,65.3,0,0,0,14.4,6.84c7.57,2.35-16.17,10.66-16.17,10.66l21.42,3.68s-27.76,15.91-17.4,13.83,61.11-20.62,77.79-23.14,73.16-11.51,73.16-11.51"/><path class="3204b854-1508-44fc-9fc4-f3a1b6a1905d" d="M984.89,512S995,469.24,995,459.9s-24.3-23.66-22.49-39.16,12.36-64.17,12.36-64.17,2.09,9,4.45,11.33,6.83-7.66,6.83-7.66.94,11.41,2.83,15c3.43,6.5,8.53-24.67,8.53-24.67s12.85,11,6.64,23c-2.44,4.71-12.31,21.33-11.74,29s6.86,27.88,11.28,35.17c8.81,14.5-9.14,74.23-9.14,74.23"/><path class="3204b854-1508-44fc-9fc4-f3a1b6a1905d" d="M1036.53,533.33s18.81-21.76,29.47-40.09,22-62,30.34-72.5,38.66-43.5,38.66-43.5-14.33,32.33-9.33,28,22-18,20-14.67-26.33,30.33-18.67,26,32-19.67,28.67-14.67-21,20.84-18.67,23.34,16.17-6.5,20.84-8.17-23.84,23.5-17.5,23.17S1166,420.07,1163,428.4s-23.66,28.6-12,26.88,20.67-14.38,16-5.38-12.66,27.34-28,33.34-40,38.85-59.33,50.09-32.54,16.57-32.54,16.57"/><path class="3204b854-1508-44fc-9fc4-f3a1b6a1905d" d="M1058,580.13c27.5-3.5,91.5-24,123-26s47,0,47,0-28.5,9.61-18,12.56,28.5,5,22,7.55-12.3,7.64-23.74,9.33c-11.26,1.67,2.31,1.17,11.41,6,10.14,5.38-8.62,8.4-11.67,9-7,1.38,14.65,2.71,17.34,6.33s-13.43,6.4-7.34,8.28c15.34,4.72,18,4,22,5s-46.27,14.4-67.88,11.45-65.12-.11-84.12,3.22a50.75,50.75,0,0,1-32.87-5.17"/><path class="374055b0-4a8c-4355-818c-c51c8085e0d4" d="M864.13,1088.07s-3,16.1-9.55,30.33c-4,8.59-2.21,32.87-6.58,33.07s-9-7.44-6.23-19.23,6-26.53,6-26.53Z"/><path class="374055b0-4a8c-4355-818c-c51c8085e0d4" d="M837.53,1156.67c3.56-.07,6.36-9,6.35-15.15s3.76-30.72,3.76-30.72l-8.93-5.27-7.9,35.18S829.31,1156.84,837.53,1156.67Z"/><path class="374055b0-4a8c-4355-818c-c51c8085e0d4" d="M829.06,1160.32c3.46.48,6.94-6.89,5.91-16-2.17-19.11,8.31-34.74,8.31-34.74l-19.21,16S817.49,1158.7,829.06,1160.32Z"/><path class="dc70b717-a552-458f-a116-aa25a4ffa506" d="M851.38,1106.72c15.67-10,14.88-29.07,10.85-34.57-1.71-10.82-.72-90.66-2.61-114.21-.71-8.81,21.58-36.34,30.12-50.87,19.68-33.43,23.35-28.71,37.78-59.52,8.66-18.5,14.35-28.29,7.36-32.54-20.65-12.53-46.36,15.1-64.13,47S825.29,931.48,825,954.44c-.16,14.29,11.5,54.63,13.87,92.61.87,14.11,2.48,17-.11,21.11-30.63,48.15-22.85,85-18.6,86.15,9.12,2.53,4.58-11.66,6.11-19.46.61-3.08-.12-6.75,2-8.62,10.58-9.52,4.09-13.08,7.35-20.67,1.44-3.35,3.24,6.1,5.9,6.57C846,1112.9,851.38,1106.72,851.38,1106.72Z"/><path class="e789155f-cc83-41e2-96e4-3cfe0af64ff6" d="M826.22,1112.82c-13,6.1-56.75,95.3-56.75,95.3L796,1190.91s21.73-72.17,34-78.82S826.22,1112.82,826.22,1112.82Z"/><path class="e789155f-cc83-41e2-96e4-3cfe0af64ff6" d="M839.63,1115.25s-1.48,10.15-3.64,28.5c-1.42,12.16-10.29,28.45-10.29,28.45l13.86-7.94s10-45.55,6.6-47.2A18.93,18.93,0,0,0,839.63,1115.25Z"/><path class="e789155f-cc83-41e2-96e4-3cfe0af64ff6" d="M769.47,1208.12,796,1190.91l29.72-18.71,13.86-7.94a80.17,80.17,0,0,1,22.63,4.41c9.59,3.42,8.76,10.19,8.76,10.19s-6.63,9.63-11.35,14.25c-7.51,7.34-32,32.62-32,32.62L813.48,1241l-70.77-18Z"/><path class="e789155f-cc83-41e2-96e4-3cfe0af64ff6" d="M887.13,1248.69c2.54,21.33-85.67,94.5-85.67,94.5l12-102.22L871,1178.86Z"/><path class="e789155f-cc83-41e2-96e4-3cfe0af64ff6" d="M801.46,1343.19a243.65,243.65,0,0,1-45.86-8.13c-27.28-7.57-44.88-19.32-44.88-19.32s-4.78-9.44,7.39-42.55c5.48-14.89,24.6-50.25,24.6-50.25l70.77,18s-1.74,45.61-4,68.33A129.59,129.59,0,0,1,801.46,1343.19Z"/><path class="e789155f-cc83-41e2-96e4-3cfe0af64ff6" d="M863.89,1186.48s-3.44-23-7.74-34.85-12.84-34.25-12.84-34.25l2.69-4.89s13.71,29.91,20.15,47.78c5.69,15.82,4.8,18.59,4.8,18.59Z"/><path class="e789155f-cc83-41e2-96e4-3cfe0af64ff6" d="M835,1109.44s-5.46,2.89-9.45,17.29S813.48,1241,813.48,1241l14.12-15.24s-3.84-28.43-2.44-54.51C826.48,1146.81,835,1109.44,835,1109.44Z"/><path class="e789155f-cc83-41e2-96e4-3cfe0af64ff6" d="M746.89,1260.42s-16.49,23.83-7.83,40c2.88,5.38,33.52,14.36,37.48,11.32,12.78-9.85,13.7-39.26,13.7-39.26Z"/><path class="9eefa39d-ce54-443a-b5e3-776a77098728" d="M749.81,1266.5s-1.07,1.69-2.43,4.36"/><path class="524f7e48-e603-40f6-821f-e53513f9a865" d="M745.4,1275.06c-2.79,6.48-5.35,15.29-2.35,21.46,4,8.24,27.74,11.67,30.29,10.28,6.56-3.57,9.14-15.19,10.14-22.94"/><path class="9eefa39d-ce54-443a-b5e3-776a77098728" d="M783.75,1281.55c.3-3,.35-5,.35-5"/><path class="374055b0-4a8c-4355-818c-c51c8085e0d4" d="M834.38,1103.13s.91,19.65,1.26,29.93c.14,4.07,12.07-3.54,11.8-13-.32-11.5,3.94-13.35,3.94-13.35"/><path class="374055b0-4a8c-4355-818c-c51c8085e0d4" d="M1078.92,1083.67s3,16.1,9.55,30.33c4,8.6,2.21,32.88,6.58,33.07s9-7.44,6.23-19.23-6-26.53-6-26.53Z"/><path class="374055b0-4a8c-4355-818c-c51c8085e0d4" d="M1105.52,1152.28c-3.56-.07-6.36-9-6.35-15.16s-3.76-30.71-3.76-30.71l8.93-5.27,7.9,35.17S1113.74,1152.44,1105.52,1152.28Z"/><path class="374055b0-4a8c-4355-818c-c51c8085e0d4" d="M1114,1155.92c-3.46.49-6.94-6.89-5.91-16,2.17-19.11-8.31-34.73-8.31-34.73l19.21,16S1125.56,1154.3,1114,1155.92Z"/><path class="dc70b717-a552-458f-a116-aa25a4ffa506" d="M1091.67,1102.32c-15.67-10-14.88-29.06-10.85-34.57,1.71-10.81.72-90.66,2.61-114.2.71-8.82-21.58-36.35-30.12-50.87-19.68-33.44-23.35-28.71-37.78-59.53-8.66-18.5-14.35-28.29-7.36-32.53,20.65-12.54,46.36,15.09,64.13,47S1117.76,927.08,1118,950c.16,14.3-11.5,54.64-13.87,92.61-.88,14.11-2.48,17.06.11,21.12,30.63,48.14,22.85,85,18.6,86.14-9.12,2.53-4.58-11.65-6.11-19.45-.61-3.09.12-6.75-2-8.63-10.58-9.52-4.09-13.08-7.35-20.67-1.44-3.35-3.24,6.11-5.9,6.57C1097.1,1108.51,1091.67,1102.32,1091.67,1102.32Z"/><path class="374055b0-4a8c-4355-818c-c51c8085e0d4" d="M1108.67,1098.74s-.91,19.64-1.26,29.92c-.14,4.08-12.07-3.54-11.8-13,.32-11.49-3.94-13.35-3.94-13.35"/><path class="7ac89fa6-c447-4245-a1f8-2487263c4a05" d="M947.69,1513.29h0a9.47,9.47,0,0,1-1.85,9.08c-8,10.5-53.54,44-75.84,29-5-3.39,2.46-8.51,11.69-14h0s-51.59,26.5-38.59,36,47.51,8.5,77.5-9,36.07-17.5,35.28-27S947.69,1513.29,947.69,1513.29Z"/><path class="dc70b717-a552-458f-a116-aa25a4ffa506" d="M946.47,1386.11l12-130.85H885.83s3,79.45,12.44,106.45c3.54,10.07,4.71,62.81,7.1,79.16,5,34.27,8.15,65.28-2,81.5-2.84,4.52-13,9.92-21.65,15-9.23,5.46-16.72,10.58-11.69,14,22.3,15,67.84-18.5,75.84-29a9.47,9.47,0,0,0,1.85-9.08c-1.75-6.5-7.92-14.12-3.72-30.92C961,1414.21,946.47,1386.11,946.47,1386.11Z"/><path class="7ac89fa6-c447-4245-a1f8-2487263c4a05" d="M992.37,1512.07h0a9.47,9.47,0,0,0,1.85,9.08c8,10.5,53.54,44,75.84,29,5-3.39-2.46-8.51-11.69-14h0s51.59,26.5,38.59,36-47.51,8.5-77.51-9-36.06-17.5-35.28-27S992.37,1512.07,992.37,1512.07Z"/><path class="dc70b717-a552-458f-a116-aa25a4ffa506" d="M993.58,1384.89l-12-130.85h72.64s-3,79.45-12.45,106.45c-3.53,10.07-4.7,62.81-7.1,79.16-5,34.27-8.15,65.28,2,81.5,2.84,4.52,13,9.92,21.65,15,9.23,5.46,16.72,10.58,11.69,14-22.3,15-67.84-18.5-75.84-29a9.47,9.47,0,0,1-1.85-9.08c1.75-6.5,7.92-14.12,3.72-30.92C979.06,1413,993.58,1384.89,993.58,1384.89Z"/><path class="60bcf9e8-20f2-4dea-a6af-cbffea2429a1" d="M1123.1,1217.19l-8.12-20.36-10.2-25.61c-3.23,5-10.4,9.66-20.64,13.71a178.68,178.68,0,0,1-29.24,8.3c-22.25,4.56-50.07,7.27-80.27,7.27s-58-2.71-80.27-7.27a179,179,0,0,1-29.24-8.3c-10.23-4-17.4-8.7-20.63-13.71l-10.21,25.61-8.11,20.36-2.26,5.67c15.16,18.53,76.88,32.4,150.72,32.4s135.56-13.87,150.73-32.4Z"/><path class="60bcf9e8-20f2-4dea-a6af-cbffea2429a1" d="M1097.08,1151.93l-7.36-18.47-15.24-38.23c-3.11,9.82-26,18.12-58,22.06a359.34,359.34,0,0,1-83.78,0c-32-3.94-54.85-12.24-58-22.06l-15.24,38.23-7.36,18.47-3.72,9.33c8.16,7,24.34,13.14,45.67,17.53,22.29,4.59,50.2,7.32,80.5,7.32s58.22-2.73,80.5-7.32c21.34-4.39,37.51-10.49,45.68-17.53Z"/><path class="60bcf9e8-20f2-4dea-a6af-cbffea2429a1" d="M1070.42,1085l-6.69-16.77-2.6-6.52-44.74-113.23c-3.76,4.4-21,7.73-41.76,7.73-20.9,0-38.26-3.38-41.84-7.84l-44.66,113.34-2.6,6.52L878.85,1085l-1,2.49c11.48,11.41,50.46,19.82,96.77,19.82s85.29-8.41,96.78-19.82Z"/><path class="e789155f-cc83-41e2-96e4-3cfe0af64ff6" d="M1017.42,943.68a16.27,16.27,0,0,0-2.53-1.37c-7.35,3.24-22.7,5.48-40.45,5.48s-33.1-2.24-40.45-5.48a15.72,15.72,0,0,0-2.66,1.46c-1.27.91-2,1.87-2,2.86a2.81,2.81,0,0,0,.72,1.75c3.79,4.57,22.19,8,44.34,8,22,0,40.26-3.42,44.24-7.95a2.83,2.83,0,0,0,.82-1.85C1019.5,945.6,1018.77,944.61,1017.42,943.68Z"/><path class="60bcf9e8-20f2-4dea-a6af-cbffea2429a1" d="M1046.25,806.93c-4.76-10.55-31.43-14.29-31.43-14.29h-6.59a10.62,10.62,0,0,1,.68,5c-2.41,21.63-9.77,36.22-32.4,36.22s-30-14.6-32.41-36.23a10.56,10.56,0,0,1,.68-5H934.32s-26.67,3.74-31.43,14.29c-1.16,2.57-1,5.54,1.11,9,14,22.35,15.28,39.85,21.31,63.85,1.39,5.54,2.61,12,3.65,18.71,2.15,13.77,3.58,28.4,4.36,37.57.16,1.87.29,3.51.4,4.87a13.13,13.13,0,0,0,2.74,1.6c6.93,3.16,21.42,5.34,38.17,5.34s31.25-2.18,38.18-5.34a13.43,13.43,0,0,0,2.6-1.49c.11-1.41.25-3.13.41-5.1.78-9.17,2.21-23.74,4.35-37.45,1.05-6.68,2.27-13.17,3.66-18.71,6-24,7.3-41.5,21.3-63.85C1047.27,812.47,1047.41,809.5,1046.25,806.93Z"/><path class="e789155f-cc83-41e2-96e4-3cfe0af64ff6" d="M1124.37,1221.24c-.36.54-.77,1.08-1.21,1.62-15.16,18.53-76.88,32.4-150.73,32.4s-133.36-13.87-148.52-32.4c-.45-.54,2.62-5.12,2.26-5.67-1.56,2.35-8,8.82-8,11.28a11.32,11.32,0,0,0,.31,2.59c5,21.59,72,38.68,154,38.68s149-17.09,154-38.68a11.32,11.32,0,0,0,.31-2.59A13,13,0,0,0,1124.37,1221.24Z"/><path class="e789155f-cc83-41e2-96e4-3cfe0af64ff6" d="M1104,1158a22.82,22.82,0,0,1-3.15,3.27c-8.17,7-24.34,13.14-45.68,17.53-22.28,4.59-50.2,7.32-80.5,7.32s-58.21-2.73-80.5-7.32c-21.33-4.39-37.51-10.49-45.67-17.53a22.92,22.92,0,0,1-3.16-3.27,11.69,11.69,0,0,0-2.74,7.19,11,11,0,0,0,1.93,6c3.23,5,10.4,9.66,20.63,13.71a179,179,0,0,0,29.24,8.3c22.25,4.56,50.07,7.27,80.27,7.27s58-2.71,80.27-7.27a178.68,178.68,0,0,0,29.24-8.3c10.24-4,17.41-8.7,20.64-13.71a11.11,11.11,0,0,0,1.93-6A11.71,11.71,0,0,0,1104,1158Z"/><path class="e789155f-cc83-41e2-96e4-3cfe0af64ff6" d="M1072.15,1086.74c-.23.26-.48.52-.74.78-11.49,11.41-50.46,19.82-96.78,19.82s-85.29-8.41-96.77-19.82c-.27-.26-.51-.52-.75-.78a9.39,9.39,0,0,0-2.7,6.2,7.51,7.51,0,0,0,.37,2.29c3.11,9.82,26,18.12,58,22.06a359.34,359.34,0,0,0,83.78,0c32-3.94,54.85-12.24,58-22.06a7.51,7.51,0,0,0,.37-2.29A9.39,9.39,0,0,0,1072.15,1086.74Z"/><path class="e789155f-cc83-41e2-96e4-3cfe0af64ff6" d="M904,815.89a11,11,0,0,1-1.11-10c-3.75-3-9.13-2.61-13.53-.07h0A12,12,0,0,0,885,822.25l43,76.2c-1-6.68-1.26-13.17-2.65-18.71C919.28,855.74,918,838.24,904,815.89Z"/><path class="e789155f-cc83-41e2-96e4-3cfe0af64ff6" d="M1059.78,805.86h0c-4.4-2.54-9.78-2.94-13.53.07a11,11,0,0,1-1.12,10c-14,22.35-15.27,39.85-21.3,63.85-1.39,5.54-1.61,12-2.66,18.71l43-76.2A12,12,0,0,0,1059.78,805.86Z"/><path class="e789155f-cc83-41e2-96e4-3cfe0af64ff6" d="M1009.3,784.23c-1.17-.32-9,0-8.87,2.31.24,3.46,6.18,3,7.57,6a10.63,10.63,0,0,1,.88,5.57q-.36,3.27-.88,6.3c-3.16,18.11-11.16,29.93-31.51,29.93S948.18,822.65,945,804.7q-.57-3.18-.94-6.6a10.52,10.52,0,0,1,.94-5.65c1.4-3,7.31-2.48,7.55-5.91.16-2.29-7.69-2.63-8.86-2.31-4.33,1.16-8.57,4.11-9.39,8.41-.64,3.33,0,13.54,0,13.54,1.46,9.18,3.8,17.2,7.55,23.67,6.46,11.15,17.1,17.73,34.65,17.73s28.13-6.58,34.6-17.74c3.75-6.48,6.11-14.51,7.57-23.7,0,0,.64-10.18,0-13.5C1017.87,788.34,1013.63,785.39,1009.3,784.23Z"/><path class="1dbbef63-b309-4f21-bd1c-13e7d95ebb61" d="M1051.25,1023.78l-4.66-7.84c0-4.11-32.22-7.45-72-7.45s-72,3.34-72,7.45l-4.66,7.84a1.36,1.36,0,0,0-.56,1c0,4.42,34.55,8,77.18,8s77.19-3.58,77.19-8A1.38,1.38,0,0,0,1051.25,1023.78Z"/><path class="7c4e1506-ed23-42da-80df-641a238e7a07" d="M974.63,995.79a24.82,24.82,0,1,0,24.82,24.82A24.83,24.83,0,0,0,974.63,995.79Zm0,39.89a15.07,15.07,0,1,1,15.07-15.07A15.07,15.07,0,0,1,974.63,1035.68Z"/></g><g id="be9da3bd-72d8-4b4b-b1f3-9ff51d1843a2" data-name="Layer 3"><path class="3a4b4811-0e06-4d5c-83e7-7d0b17cb5985" d="M1465.71,763.66c-14.67,11-39.33-1-32-10s27.33-7.33,27.33-7.33S1417,741,1424.38,729s37.33,0,37.33,0-12.67-12-4-20,22.67,14.66,22.67,14.66Z"/><path class="07648f8a-532f-4fe6-8520-c3bc62880d87" d="M1979.47,1344.17s87.81-14,114.41,10.34,36.35,46.1,36.35,46.1a402.81,402.81,0,0,1-75.38,11.52c-41.2,2.22-84.19,0-84.19,0Z"/><path class="07648f8a-532f-4fe6-8520-c3bc62880d87" d="M2113.72,1423.32s-18.62-23.32-67.37-60.55c-44-33.62-63.31-6.39-108.08-29.15-21.86-48.84,2.7-144.28,50.46-170.6,86.88-47.87,150.71-140.95,72.7-218.08S1922,901,1861.08,968c-38.83,42.75-134.79,146-112.36,185s119.45,79.51,119.45,79.51,14.14,70.89,14.18,120.26c-26.61-22.81-32.56,34.5-37.23,69.14,47.1,18.08,82.83,29.86,125.53,30l117.37.51s-3.22-10.93-12.82-24.5Z"/><path class="07648f8a-532f-4fe6-8520-c3bc62880d87" d="M2271.59,599.88c-6.68-9.66-92.51-38.33-99.21-26.44s7.82,59.93,14.51,86.21c-24,9.66-38.5,20.37-72.09,45.74-49.64,37.5-49.64,56.08-49.64,56.08s-42.14-30.84-52.92-60.94S1984,644.79,1959.47,650c0,0-56.48,23.41-17.09,52.77s104.79,95.87,104.79,95.87-3.43,5.43-.74,16.35c5.2,21.18,28.61,8.54,35.67,1.11S2188.75,681.58,2198,683.43s22,6.39,27.49,2.23c6.27-4.72,5.78-21.92,17.57-26s37.1-12.26,37.1-12.26Z"/><path class="07648f8a-532f-4fe6-8520-c3bc62880d87" d="M2225.35,579.57s75.25,8,73.76,20.63c0,0,4.83,52.37-18.91,47.19-23.34-5.09-8.61-31.13-8.61-31.13l-57-9.93Z"/><path class="07648f8a-532f-4fe6-8520-c3bc62880d87" d="M2226,565.55s8.55-9.81,14.87-7.95,19.85,12.22,25.55,21c4.9,7.59,9.29,25.26-1.49,34.93-6.8,6.1-15.33,31.49-35.4,13.37-8.19-7.39,6.4-26.06,6.4-26.06s-6.67-8.87-17.82-20.76S2226,565.55,2226,565.55Z"/><path class="07648f8a-532f-4fe6-8520-c3bc62880d87" d="M2200.27,630.67c-6.69-9.66,0-32,0-32s-6.14,21,13.37,22.3c11,.73,13.75-9.29,15.61-29.73S2223.3,556,2212.9,546s-33.82,15.6-40.52,27.49,7.82,59.93,14.51,86.21"/><path class="07648f8a-532f-4fe6-8520-c3bc62880d87" d="M1959.61,735.52c27.09-36-21.22-196.53-21.22-196.53l40.51-81.21-424.67,1.55S1532.85,587.26,1519,615.09c-20.23,40.69-36.18,117.27-38.64,121.49-12,20.58-11.26,110.79-38.26,140.69s-17,143.1-40,150.38-7.74,28.68-31.74,46.68c-7-22-66-38.65-100-38.65,0-29.64-8-136.35-22-137.23s-86,221.88,30,349.88,321.87,88,321.87,88,92.13,10,202.13-44,225.15-235.81,225.75-348.81S1959.61,735.52,1959.61,735.52Z"/><polygon class="5728252f-61a1-44e4-8531-b45ff63bec78" points="1935.57 245.81 1658.09 298.57 1563.9 499.33 1728.77 551.92 1913.91 445.06 1983.52 491.48 1935.57 245.81"/><path class="cb5c438e-8c87-46db-a014-501d37d114b7" d="M1952.49,442.31c-34.77-18.52-74.79-62.38-130.94-46.12-29.87-54.12-269,117-269,117L1509.74,557l8.36,10.75,117.08,27.48L1671,614.35l69.86-49,161.91-61.87,39.52-11Z"/><path class="07648f8a-532f-4fe6-8520-c3bc62880d87" d="M1870.63,551.92s90.92-37.16,112.89-60.44c27.79-29.44,87-286.71,14.84-270.58,0,0,38.92-34.05-.5-60.93,4.48-35.84-11.65-123.24-71.68-105.4-44.63,13.26-55.55,30.14-55.55,30.14s-15.65-33-119.82-29.94-156.25,71.16-156.25,71.16-26.77-47.49-64.4,0-16.92,67.15-16.92,67.15-38.32,5.36-17.71,35.83c-29.73,10-41.86,40.78-47.24,71.24-35.83,8.06-50.17,9-53.75,41.22s50.17,19.71,50.17,19.71-17,44.13-14.33,57.34c3.58,17.92,66.61,48,190.11,53.76,110.62,5.14,251-207.38,300.31-192.15s8.07,93.8,21.51,106.34,17,65.2,0,75.06S1723.69,561.37,1696.81,590s-39.42-6.27-82.43-9-96.28-13.33-86-34.05c19.64-39.62,105.16-74.85,105.16-74.85l-39,1.28s-84.82,38.54-96.65,68.2c-7.1,17.79-2.69,31.42,14.33,37.63,27.36,10,76,13.43,103.93,22,22.1,6.76,41.39,38.94,67.74,28.19,0,0,52.45-45.43,74.2-45.37,14.36,0,48.85,30.26,48.85,30.26"/><path class="3a4b4811-0e06-4d5c-83e7-7d0b17cb5985" d="M1582.26,199.58c-15.41,25.36-43.25.7-33.68-17.65s24.91-8.39,24.91-8.39-17.51-42.64-.93-55.16,21.61,23,21.61,23,1.36-48.36,15.72-46.89,15.07,46.61,5.86,62.31S1582.26,199.58,1582.26,199.58Z"/><path class="3a4b4811-0e06-4d5c-83e7-7d0b17cb5985" d="M1704.47,72c-22.7-26.88-31.77-56.67,0-63.32,22.7-4.75,21.5,29.72,21.5,29.72s-1.19-43.46,29.87-36c21.59,5.19,12,35,12,35s12-29.86,26.28-19.11-16.72,40.62-16.72,40.62S1759.43,48.07,1732,60Z"/><path class="9dd98283-8a5c-41b6-b881-3d821b83fbfd" d="M1758.11,181.51s20.93-37.63,57-28.67c20.81-48.38,55.55-68.13,55.55-68.13"/><path class="9dd98283-8a5c-41b6-b881-3d821b83fbfd" d="M1834.79,263.91c26.38,0,114-21.41,117.7-43"/><path class="e450857f-7020-4efe-bc4f-5db2abcf7bb0" d="M1904.15,137c-30.14-5-49.64,35-81.58,61.69,0,.21-33.08,30.47-33.08,30.69a64.6,64.6,0,0,0,40.9,60.09c32.73-6.82,107.74-50.55,116.24-64.86A64.63,64.63,0,0,0,1904.15,137Z"/><path class="9dd98283-8a5c-41b6-b881-3d821b83fbfd" d="M1585.57,376.19c22.1-32.26,46.59-29.27,64.51-15.53,9.34,7.16,12,23.89,0,34.64"/><path class="9dd98283-8a5c-41b6-b881-3d821b83fbfd" d="M1773.71,245.81c36.94-12.31,92.26-116.09,135-108.83,23.4,4,33.65,9.7,33.65,9.7"/><polygon points="1884.14 183.51 1911.55 254.69 1939.38 236.11 1884.14 183.51"/><path class="8862c209-fa1a-4f4b-b223-02e53992b7ab" d="M1415.4,1383.87a83.38,83.38,0,0,0,25.78-10Z"/><path class="07648f8a-532f-4fe6-8520-c3bc62880d87" d="M1415.25,1423.44h0a57.24,57.24,0,0,1-19.13.28c-52.27-8.61-70.59,80.85-69.69,113.61,30.44,10.21,64.51-16.82,64.51-16.82C1389.59,1505.07,1385.25,1435.55,1415.25,1423.44Z"/><path class="07648f8a-532f-4fe6-8520-c3bc62880d87" d="M1430,1145.76c24.92,40,78.89,116.14,78.89,116.14s11.19,35.29,1.73,65.41c-6.74,21.45-28.39,58.58-64.23,79.13-8.51,4.87-27.91,11.88-36.6,17-25.86,15.2-24.33,105.72-21.4,125.63,34.29,5.72,60.25-29,60.25-29l7.52,31.81c48.2,5,153.54-38.67,158.9-53.21s32.59-116.26,19.2-125.06c-8.31-5.46-29.29,9.68-29.29,9.68s8.6-77.09,6.88-120.13c55.1-49.93,96.42-218.66,99.86-258"/><path class="9dd98283-8a5c-41b6-b881-3d821b83fbfd" d="M1448.65,1520.12s-9.58-75.89,10.79-96.68,74.27-30.27,74.27-30.27l15.23-29.84"/><path class="07648f8a-532f-4fe6-8520-c3bc62880d87" d="M2075.2,1427.93s-16.16-28.11-61.85-46.38c-19.94-8-61.85-8.42-61.85-8.42l-14.18-23.94"/><path class="3a4b4811-0e06-4d5c-83e7-7d0b17cb5985" d="M1266.83,931.31c5.8-8.1,13.46-7,13.45-1.9,0,2-7.75,5.41-7.75,5.41s13.62-6,15.4,1.15-6.33,6.7-8.87,7.52c1.19-.26,7.54.31,7.35,5.31-.18,4.79-16.13.34-16.13.34Z"/><path class="3a4b4811-0e06-4d5c-83e7-7d0b17cb5985" d="M1293.38,1055.83c-3.75-9.25-10.08-19.5,0-19.5,3.68,0,6.71,2.91,6.71,2.91s-7.21-15.66-.71-18.41,14,19,14,19,2.25-7.75,8.5-8-3,24-3,24Z"/><path class="3a4b4811-0e06-4d5c-83e7-7d0b17cb5985" d="M1381.71,1066.33s-19.5,8.5-21-4.67,19.33-5.83,19.33-5.83-21.33-4.33-19.41-14.83c1.2-6.57,17.29-2.79,17.29-2.79s-6.71-6-2.21-9.88,15,9.88,15,9.88Z"/><path class="3a4b4811-0e06-4d5c-83e7-7d0b17cb5985" d="M1427,920.66c-11.83,7.17-26.16,9.84-27.33,0s13.67-13.33,13.67-13.33-18.67.67-20-6,.16-14.67,5-15,19.45,5.16,19.45,5.16-6.45-6.33-2.12-11.83S1438.38,890,1438.38,890Z"/><path class="48edf599-ae07-4aa9-81e0-ff3dc59c90cc" d="M2215.19,606.55c14.39,4.12-6.42,22.76-6.42,22.76S2204.33,603.45,2215.19,606.55Z"/><path class="48edf599-ae07-4aa9-81e0-ff3dc59c90cc" d="M2249.84,621.38c10.93,10.23-16.09,17.34-16.09,17.34S2241.59,613.67,2249.84,621.38Z"/><path class="48edf599-ae07-4aa9-81e0-ff3dc59c90cc" d="M2284.4,635.93c15-.1.23,23.64.23,23.64S2273.11,636,2284.4,635.93Z"/><path class="07648f8a-532f-4fe6-8520-c3bc62880d87" d="M1773.71,614.35c0-15.13-15.6-30.26-15.6-30.26"/><path class="07648f8a-532f-4fe6-8520-c3bc62880d87" d="M1713.6,606.22s1.71,20.49-9.22,40.11"/><path class="42cc3af0-4131-4343-a1b5-16b795ff5e71" d="M1460.92,446.35s-1.25,32.16,9,35.11c6.87,2,16.75-25.71,16.75-25.71Z"/><path class="42cc3af0-4131-4343-a1b5-16b795ff5e71" d="M1515.29,462.37s1.64,23,9.59,25.54c12.2,3.83,11.4-21,11.4-21Z"/><path class="42cc3af0-4131-4343-a1b5-16b795ff5e71" d="M1571.71,468.25s9.8,31.05,17.17,29.58,12.29-26.78,12.29-26.78Z"/><path class="07648f8a-532f-4fe6-8520-c3bc62880d87" d="M1531.4,659.65s-100.53,9.32-123.2,5.65c-8.77,5.31-96.27,73.21-96.45,82.68s1.53,22.85-3.71,27.34c-6,5.1-22.65.94-29.17,11.59S1259,820.52,1259,820.52l-44.56-18.58c-8-8.6-17.63-98.57-4.58-102.57s56.85,20.47,81.1,32.63c14.57-21.34,26.57-32.27,54.58-63.7,27.34-30.67,36.16-33.92,36.16-33.92s31.68-5.41,54.18-13.41,63-10,63-10-.84-12,7.33-16,23.67,0,23.67,0l18,27Z"/><path class="07648f8a-532f-4fe6-8520-c3bc62880d87" d="M1200.47,742.3s-8.31,75.21,4.35,76.47c0,0,50.12,15.93,50.15-8.37,0-23.89-28.57-15.07-28.57-15.07l2.5-57.8Z"/><path class="07648f8a-532f-4fe6-8520-c3bc62880d87" d="M1186.63,739.93s-11.41,6.25-11,12.82,7.69,22,15.09,29.46c6.37,6.42,22.69,14.49,34.44,6,7.41-5.34,34-8.23,20.64-31.72-5.46-9.58-26.83.67-26.83.67s-7.23-8.41-16.46-21.85S1186.63,739.93,1186.63,739.93Z"/><path class="07648f8a-532f-4fe6-8520-c3bc62880d87" d="M1255.75,728.74c-8-8.6-31.22-6.84-31.22-6.84s21.82-1.5,18.92,17.84c-1.64,10.88-12,11.44-32.38,8.88s-33.21-13.37-40.79-25.68,22.49-29.69,35.54-33.69,60.84,30.59,85.09,42.75"/><path class="48edf599-ae07-4aa9-81e0-ff3dc59c90cc" d="M1229,738.15c.94,14.94,23.61-1.39,23.61-1.39S1228.29,726.88,1229,738.15Z"/><path class="48edf599-ae07-4aa9-81e0-ff3dc59c90cc" d="M1236.06,775.18c7.65,12.87,20.38-12,20.38-12S1230.3,765.47,1236.06,775.18Z"/><path class="48edf599-ae07-4aa9-81e0-ff3dc59c90cc" d="M1242.87,812.05c-3.3,14.6,23.05,5.29,23.05,5.29S1245.36,801,1242.87,812.05Z"/></g><g id="d18e52d9-a3f0-4876-8167-22ad6d44bc0c" data-name="Layer 4"><path class="f3aac2f3-ed99-4e14-b0e6-39952e562aac" d="M1784.12,2195.54h66.26s16-48.22,0-46.66,0-72.6,0-72.6H1820.8s18.19,70.63-7.64,75.71C1784.12,2157.69,1784.12,2195.54,1784.12,2195.54Z"/><path class="f3aac2f3-ed99-4e14-b0e6-39952e562aac" d="M1818.28,2164.29c-14.29,3.57-14.29,31.25-14.29,31.25h19.36"/><path class="f3aac2f3-ed99-4e14-b0e6-39952e562aac" d="M1838.22,2164.29c-8.12,1.19-10,31.25-10,31.25h18.21"/><path class="f3aac2f3-ed99-4e14-b0e6-39952e562aac" d="M1989.67,2030.1h66.26s16-48.22,0-46.67-8.38-127.46-8.38-127.46l-42.21,31.93s39.2,93.57,13.36,98.65C1989.67,1992.25,1989.67,2030.1,1989.67,2030.1Z"/><path class="f3aac2f3-ed99-4e14-b0e6-39952e562aac" d="M2023.83,1998.85c-14.29,3.57-14.29,31.25-14.29,31.25h19.36"/><path class="f3aac2f3-ed99-4e14-b0e6-39952e562aac" d="M2043.77,1998.85c-8.12,1.19-10,31.25-10,31.25H2052"/><path class="f3aac2f3-ed99-4e14-b0e6-39952e562aac" d="M1707,2065s-40.79,63.88-23.5,87.39,23.5,23.51,23.5,23.51-14,3.47-13.88,27.65c.18,44,20.8,59.13,0,59.46-43.5.69-29,50.35-29,50.35h75.07s-4.49-19.58,15.27-26.84c10-3.66-5.59-20.4-5.59-46.67,0-33-1.57-64.1,5.59-58.42,11.35,9,27.1-6.38,30-20.05l8.3-38.89s31.44,14.24,57.16,14.45c30,.24,43.78-14.45,43.78-14.45s56,50.82,127.22,46.49c53-3.23,15.06,58.78,3.23,61.31-28.07,6-30.48,40.76-23.51,42.86l70.52-2.76s3-39.18-10.14-48.86,20.05-51.86,24.89-65-4.15-13.47-26.27-34-40.1-58.77-71.91-76.66,20-44.86,38.72-96.71,47-175.62-18-217.11-92-36.78-92-36.78-18-55.17-10.38-79.37,31.11-58.08,65-53.93,48.4,32.5,65,37.34,80.2-6.92,76.06-28.35-54.62-22.13-62.23-15.9-39.41-29.89-71.91-29c-42.72,1.11-83.53,18-98.11,33.18s-12.51,137.45-12.51,137.45-44.25,0-83,47.85c-49.71,61.43-14.81,197.56-30,215.53S1707,2065,1707,2065Z"/><path class="cb5c438e-8c87-46db-a014-501d37d114b7" d="M1967,1808.71c-34.64,16.7-13.48,57.71,12.45,68.45s-21.44,57.77,6.91,65.88,79.51-50.87,53.24-87.07C2039.57,1856,2005.69,1790,1967,1808.71Z"/><path class="6e24af6e-cc57-4b81-a650-56c98e4d5ba7" d="M1831.48,1988.06c77.71-108.91-151.83-229.29-349.26-278s-308.82-185.63-37.91-331.87,434.06-197.71,306.34-348.83-494.21-266.18-494.21-266.18"/><path class="80887171-084f-4cc7-b2af-68cf8bd792e7" d="M1782.24,1970.33c12.51-6.23,62.8.44,74.73,26.92s-11.41,77.82-53.93,77.82-56.45-18.3-61.44-35.3C1732.52,2008.83,1769.73,1976.55,1782.24,1970.33Z"/><path class="b5aa5269-d5b5-46dc-b597-7cb221e6e6df" d="M1794.56,1994.66s58.25,16.14,25,45.11-145.62,22.79-168.16,11.18l33.23-26.68s38.86,13.31,60.29.41S1794.56,1994.66,1794.56,1994.66Z"/><path class="f3aac2f3-ed99-4e14-b0e6-39952e562aac" d="M1583.19,1851.3c17.92-4.18-16.57-57.79,11.68-86.31s56.76-28.45,93.06-4.89,48.74,25,61.19,41.14,58.6,9.14,63.26-2.27-7.26-21.25-17.63-21.77-36.82,8.53-79.86-26.73-59.15-49.78-89.46-47.7-66.59,37.52-76.46,63.26C1539.24,1791.37,1552.67,1858.41,1583.19,1851.3Z"/><path class="f3aac2f3-ed99-4e14-b0e6-39952e562aac" d="M1521.79,1895.61s-.72-49.09,30.75-60.84,62.26-39.41,90.93-29c67.27,24.32,55.87,46.09,62.94,107.86,30.78,11.87,18.65,139.66-42.19,142.43s-124.46,26.27-124.46,26.27-88,90.58-200.5,18c-47.58-30.71,13.3-113.87,70.31-154.88C1459.71,1909.34,1521.79,1895.61,1521.79,1895.61Z"/><path class="8035fb13-5938-4353-8232-9a48da3779de" d="M1330.17,2103.22c9.49,10.3,50.71,13.3,61.43-11.25s15.41-46.94,5.53-68.45c-11.76-25.58-40.7-22.65-58.08-15.21C1312.26,2019.79,1276.32,2044.84,1330.17,2103.22Z"/><path class="f3aac2f3-ed99-4e14-b0e6-39952e562aac" d="M1649.49,1997.25c-6.22,14.52-109.24,85-109.24,85"/><path class="9dd98283-8a5c-41b6-b881-3d821b83fbfd" d="M1653,2008.83c-5.12-1.2-3.54-11.58-3.54-11.58s-4.24.35-6.4-2.59"/><path class="42cc3af0-4131-4343-a1b5-16b795ff5e71" d="M1509.43,1918.42c27.36,9,65.9-35.23,43.24-60-17.11-18.71-34,4.51-40,17.71C1496,1912.9,1509.43,1918.42,1509.43,1918.42Z"/><path class="42cc3af0-4131-4343-a1b5-16b795ff5e71" d="M1612.69,1894.34c19,10.94,14.3,42,2,53.47s-23.43,17.47-38.92,11.12-13.06-37.56-5.56-50C1586.87,1881.08,1605,1889.87,1612.69,1894.34Z"/><circle cx="1512.13" cy="1889.41" r="3.57"/><circle cx="1567.88" cy="1929.04" r="3.57"/><circle cx="1525.21" cy="2042.13" r="2.36"/><circle cx="1475.31" cy="2068.75" r="2.36"/><circle cx="1501.6" cy="2070.96" r="2.58"/><path class="f3aac2f3-ed99-4e14-b0e6-39952e562aac" d="M1656.58,1882.18c7.41,21.11,36-7.26,69.72-8.3s59.29,4.53,97.49,15.53c45.11,13,100.29-6.14,114.07-7.39,15.56-1.4,44.59-48.59,14.52-51.7s-44.59,21.5-44.59,21.5-43.56,20.48-70.52,8.31-50.82-22.55-90.23-19.44C1715.72,1843.17,1643.09,1843.81,1656.58,1882.18Z"/><path class="a22a0936-7c46-4b0b-9006-c13eeb259357" d="M1778.21,2074.28s15.69.77,16.82,19.08c.71,11.47-5.19,23.61-13.14,23.61-5.28,0-9-.06-9-.06Z"/><path class="a22a0936-7c46-4b0b-9006-c13eeb259357" d="M1760.46,2100.44c2,13.59,9.78,17.83,16.16,16.19,13.22-3.4,14.26-20,11.84-30.88-1.84-8.33-11.84-12.21-11.84-12.21s-5.49-11.53,11.11-21.75a106.41,106.41,0,0,0-12.41,3.61s-6,1.17-4.6,16.75C1765.91,2072.69,1758.07,2083.89,1760.46,2100.44Z"/><path class="f3aac2f3-ed99-4e14-b0e6-39952e562aac" d="M1725.67,2270.91c-29,0-22.12,42.4-22.12,42.4h-28.42s-5.26-41.23,27.38-49.66"/><path class="f3aac2f3-ed99-4e14-b0e6-39952e562aac" d="M2029.66,2236.23c-19.62,1.42-16.54,34.34-12,36.21l20.8-.82"/><path class="f3aac2f3-ed99-4e14-b0e6-39952e562aac" d="M2052.71,2239.92c-26.36,9.21-6.92,31.41-6.92,31.41l19.85-.78"/></g><g id="b65e4c8b-c2e2-4a34-a015-73d5c94a92d1" data-name="Layer 5"><path class="90c40412-1083-4aae-a045-9b04d1d92341" d="M1211.66,2152.76c16.54-157.17,5.83-125-45.11-245.58-12.5-29.59-37-74.88-15.72-127.52s36.07-106.43,36.07-106.43-36.29,73.68-34.74,44.08-18.67-73.63-18.67-73.63-9.85,113.55-15.32,96.36c-11.13-35-24-65.29-24-65.29s16.55,121,3.27,91.92c-14-30.7-38.62-67.79-38.62-67.79s-1,55.06,12.34,109.7,50.14,94.92,26.28,78.25-37.4-28.12-37.4-28.12,52.59,57,75.62,120.67c33.09,91.46,28.75,169.29,28.75,169.29Z"/><path class="90c40412-1083-4aae-a045-9b04d1d92341" d="M885.48,2316.42S860,2476.16,847.62,2488.5c-8.68,8.65-42.14,14.66-40,43.94s95.79,14.12,95-6.79c-.69-18.52-1.07-40.68-.69-55,1.42-53.88,35.33-99.12,35.33-99.12"/><path class="90c40412-1083-4aae-a045-9b04d1d92341" d="M1094,2325.73s-4.62,15.91,10.45,28.47,31.19,23.44,31.19,23.44c-11.55,13.5-29.43,29.55-5.69,59,12.52,15.52,63.2-62.84,63.2-62.84s-6.93-9.05-13.29-16.24c-14-15.85-67.24-63.57-67.24-63.57Z"/><path class="90c40412-1083-4aae-a045-9b04d1d92341" d="M919.56,2256.76s-32.54-7-51.28,20.23c-17.15,24.89-40.65,67-40.65,67s14.37-11.47,29.8-18.41c2.69,21.78-29.8,48.68-29.8,48.68l45.44-35.44s14.42,93.8,105.48,93.75c28.78,0,108.74-11.85,133.15-59.88s46.09-47.88,77.87-68.08,107.29-94.72,47.76-148.22-129.88-44.46-166.84-10.83c-33.28,30.27-48.13,95.72-124,102C912.43,2250.35,919.56,2256.76,919.56,2256.76Z"/><path class="90c40412-1083-4aae-a045-9b04d1d92341" d="M978.55,2414.29s5.56,127.73-11.84,129.65c-32.4,3.58-60.14,44.43-36.32,55,26.05,11.53,92.09,3.08,91.31-17.83-.69-18.51-1.07-40.68-.69-55,1.42-53.89,22.57-115.72,22.57-115.72"/><path class="90c40412-1083-4aae-a045-9b04d1d92341" d="M1151.43,2317.67c57.06,14.08,70.37,81.32,70.37,81.32s-34.72,3-31.27,38.21,93.65,0,93.65,0-8.79-191.9-27.07-250.08"/><path class="90c40412-1083-4aae-a045-9b04d1d92341" d="M939.29,2208.43s-43.65,41.48-22.91,59.46,22.91-13.83,22.91-13.83l19.46-45.63Z"/><path class="90c40412-1083-4aae-a045-9b04d1d92341" d="M878.35,2055c-32.49,6.49-87.45,37.25-87.45,37.25s44.24-11.06,57.72-3.45c0,0-64,46.32-69.14,76.74,31.08-12.1,49.83-13.83,65.36-8.29,0,0-45,42.35-34.28,70.7,24.93-24.2,48.68-41.67,61.82-36.13-11.76,13.48-20.65,52.89-14.08,67.75,12.1-16.94,40.1-53.24,40.1-53.24s72.75,36,139.82-2.76c98-56.56,91.8-92.65,91.8-92.65,22.47,1.38,30.08,5.53,38.72,14.52-10-28.35-39.41-42.17-39.41-42.17s13.48-22.13,39.41-12.45c-25.23-21.09-48.4-22.82-48.4-22.82s25.24-25.92,48.4-22.81c-28.69-8.3-62.92-13.89-62.92-13.89s8.3-26.06,29-25.27c-38.37,0-60.15,9.54-60.15,9.54Z"/><path class="a22a0936-7c46-4b0b-9006-c13eeb259357" d="M963.53,2098c23.43-6.91,37-28,37.56-34.89s-9-9-32.16-7.77-49,1.2-52.27,8.41S940.09,2104.92,963.53,2098Z"/><path class="a22a0936-7c46-4b0b-9006-c13eeb259357" d="M1052.08,2057c17.11-13.91,21-36.17,19.14-42.14s-10.64-4.33-29.49,4.72-40.37,18-40.61,25.21S1035,2070.89,1052.08,2057Z"/><path class="90c40412-1083-4aae-a045-9b04d1d92341" d="M800,1967.59s-63.42-19.82-86.92-52.32-62.92-87-62.92-87,48.4,42.07,40.1,25.48-24.89-56-24.89-56,30.08,40,26.27,24.13-11.06-32.43-11.06-32.43,38,60.65,31.11,45.53-12.44-71.8-12.44-71.8,18,61.18,18,49.78,1.38-27.66,1.38-27.66,23.85,76.72,85.84,168.23C806.55,1956.57,800,1967.59,800,1967.59Z"/><path class="90c40412-1083-4aae-a045-9b04d1d92341" d="M800,1967.59s24.39,75.59,61.73,93.57c54.62-58.73,83-100.94,83-100.94s-41.49-11.78-67.76-5.2-66.41,4.68-66.41,4.68Z"/><path class="90c40412-1083-4aae-a045-9b04d1d92341" d="M1024.7,1653.92,1044.93,1834l8,1,43.64-165.84s-17.06,34.11-12,14.29,5.53-57.61,5.53-57.61-29,67.52-29.5,55.77-2.62-36.41-2.62-36.41-18.74,35.26-19.81,23.5S1024.7,1653.92,1024.7,1653.92Z"/><path class="90c40412-1083-4aae-a045-9b04d1d92341" d="M978.15,1944.77s-7.84-40.79,22.58-59.92,44.2-43.71,44.2-43.71l7,2.69s10.38,84.12,4.15,103.25S978.15,1944.77,978.15,1944.77Z"/><path class="8f6559aa-3702-40e2-b6a8-89da36ec67b9" d="M1044.93,1841.14s-27.84-22.87-29.08-18.78-1.59,37-1.58,39.25C1014.29,1865.41,1044.93,1841.14,1044.93,1841.14Z"/><path class="8f6559aa-3702-40e2-b6a8-89da36ec67b9" d="M1092.67,1828.42c2.3,1.76-6.27,39.52-9,41.46s-14.19-18.56-26.92-23.7-8.33-6.69-8.33-6.69S1090.37,1826.67,1092.67,1828.42Z"/><path class="8f6559aa-3702-40e2-b6a8-89da36ec67b9" d="M1059.24,1837.53c-9.36-5.5-21-3-21-3s0,10.33,2.48,12.25c3.26,2.53,16.47-.86,16.47-.86Z"/><path class="8f6559aa-3702-40e2-b6a8-89da36ec67b9" d="M800,1967.59s-34.09,11.67-31.26,14.87,30.61,20.78,32.56,22C804.57,2006.42,800,1967.59,800,1967.59Z"/><path class="8f6559aa-3702-40e2-b6a8-89da36ec67b9" d="M814.31,1920.29c2.7-1,30.32,26.11,30.53,29.45s-23.24,2.32-34.32,10.45-10.06,3.56-10.06,3.56S811.61,1921.33,814.31,1920.29Z"/><path class="8f6559aa-3702-40e2-b6a8-89da36ec67b9" d="M804.48,1953.52c-9.6,5.07-13.58,16.33-13.58,16.33s8.8,5.42,11.73,4.32c3.86-1.44,7.93-14.47,7.93-14.47Z"/><path class="90c40412-1083-4aae-a045-9b04d1d92341" d="M828.23,2067c16.19-4,46.93,7.28,46.93,7.28,56.78-.84,120.56-8.09,133.08-15.79,13.69-8.44,14.77-6.6,36.69-26.61,11.08-10.11,30.9-23.54,36.56-18.28s3.65-25.08,13.76-31.56-38.25-57.16-86.47-53.12S946,1959.71,946,1959.71s-42.08-18.61-73.63,14.56S828.23,2067,828.23,2067Z"/><path class="90c40412-1083-4aae-a045-9b04d1d92341" d="M896.48,2009.22c-17.28,15.52-18,64.26-18,64.26"/><path class="90c40412-1083-4aae-a045-9b04d1d92341" d="M972.38,2000.24c17.29-2.34,39.73,55,39.73,55"/><path class="90c40412-1083-4aae-a045-9b04d1d92341" d="M1024.7,1974.32c14.75-1.66,50,42.59,50,42.59"/><path class="90c40412-1083-4aae-a045-9b04d1d92341" d="M995.51,2076.49s9.66-17.68,24.2-18c28.92-.6,30,32,22.12,43.56"/><path class="90c40412-1083-4aae-a045-9b04d1d92341" d="M1023.57,2067.31s15.32-10,5.22-9.41-15.87,4.19-13.58,5.5S1023.57,2067.31,1023.57,2067.31Z"/><path class="f45367f3-c97d-436b-8d80-ff575ab4d311" d="M952.37,2142.52c-7.16,5.25-29.66,58,8.71,41.39,16.36-7.08,94.27-32.26,106.72-30.66s12.79-3.24,6.91-7.74,14.4-36.71,5.78-43.5c-19.15,8-57,33.13-57,33.13S984.6,2136.06,952.37,2142.52Z"/><path class="90c40412-1083-4aae-a045-9b04d1d92341" d="M1061.69,2111.75s1.54,18.38,6,11.94c4.63-6.67,7-19,7-19Z"/><path class="90c40412-1083-4aae-a045-9b04d1d92341" d="M953.74,2147.12s2.57,18.58,7,12.15a59.94,59.94,0,0,0,7-14.37Z"/><path class="90c40412-1083-4aae-a045-9b04d1d92341" d="M935.05,2126.15l-4.84,24.2c32.4,3.63,102.83-16.77,102.83-16.77s44.25-36.12,63.61-35.78c-12.64-13.82-18-17.51-18-17.51"/><path class="90c40412-1083-4aae-a045-9b04d1d92341" d="M1023.57,2067.31c21.36,20.81,9.47,66.27,9.47,66.27"/><path class="cb5c438e-8c87-46db-a014-501d37d114b7" d="M897.32,2247.26l-4.45,26.13s21.44,11.78,37.34,9.71,39.43-15.21,39.43-15.21v-27a319,319,0,0,0-39.43,0C910.16,2242.31,897.32,2247.26,897.32,2247.26Z"/><polygon class="09e3a56f-cdd2-483c-8f97-8b12f52563f7" points="923 2257.38 931.94 2254.33 929.77 2263.89 925.62 2270.03 921.63 2263.45 923 2257.38"/><polygon class="09e3a56f-cdd2-483c-8f97-8b12f52563f7" points="935.72 2268.7 939.05 2265.17 931.94 2254.33 929.77 2263.89 935.72 2268.7"/><polygon class="09e3a56f-cdd2-483c-8f97-8b12f52563f7" points="931.29 2273.39 935.72 2268.7 929.77 2263.89 925.62 2270.03 931.29 2273.39"/><polygon class="09e3a56f-cdd2-483c-8f97-8b12f52563f7" points="960.13 2249.63 969.06 2246.59 966.89 2256.14 962.75 2262.28 958.75 2255.7 960.13 2249.63"/><polygon class="09e3a56f-cdd2-483c-8f97-8b12f52563f7" points="972.84 2260.95 976.17 2257.42 969.06 2246.59 966.89 2256.14 972.84 2260.95"/><polygon class="09e3a56f-cdd2-483c-8f97-8b12f52563f7" points="968.41 2265.65 972.84 2260.95 966.89 2256.14 962.75 2262.28 968.41 2265.65"/><polygon class="09e3a56f-cdd2-483c-8f97-8b12f52563f7" points="888.87 2255.34 897.81 2252.29 895.64 2261.84 891.49 2267.99 887.49 2261.41 888.87 2255.34"/><polygon class="09e3a56f-cdd2-483c-8f97-8b12f52563f7" points="901.58 2266.65 904.92 2263.12 897.81 2252.29 895.64 2261.84 901.58 2266.65"/><polygon class="09e3a56f-cdd2-483c-8f97-8b12f52563f7" points="897.15 2271.35 901.58 2266.65 895.64 2261.84 891.49 2267.99 897.15 2271.35"/><path class="90c40412-1083-4aae-a045-9b04d1d92341" d="M912.53,2410.36s24.25,16.58,24.6,27.71.88-20.74.88-20.74,23.67,18.45,21.59,32.4,4.87-22,4.87-22"/><path class="90c40412-1083-4aae-a045-9b04d1d92341" d="M836.42,2511.39c-17.59,3.46-17.59,33.36-17.59,33.36"/><path class="90c40412-1083-4aae-a045-9b04d1d92341" d="M856.29,2514c-17.6,3.45-17.6,33.35-17.6,33.35"/><path class="90c40412-1083-4aae-a045-9b04d1d92341" d="M961.21,2561.58c-22.29,0-26.43,39.75-26.43,39.75"/><path class="90c40412-1083-4aae-a045-9b04d1d92341" d="M984.34,2565c-27.9,1.63-27.9,39.11-27.9,39.11"/><path class="90c40412-1083-4aae-a045-9b04d1d92341" d="M1133.73,2396.05c-10,18.24,12.44,36.47,12.44,36.47"/><path class="90c40412-1083-4aae-a045-9b04d1d92341" d="M1152.4,2382.22c-9.12,16,11.22,32.07,11.22,32.07"/><path class="90c40412-1083-4aae-a045-9b04d1d92341" d="M1207.59,2414.29c-11.06,0-7,36.56-7,36.56"/><path class="90c40412-1083-4aae-a045-9b04d1d92341" d="M1229,2414.29c-15.3,0-8.29,36.56-8.29,36.56"/><path class="90c40412-1083-4aae-a045-9b04d1d92341" d="M1049.71,2418.62s20.84,11.4,33,6.91c-14.46-11.24-16.48-19.36-16.48-19.36s16.82,9.55,27.19,8.12c9-1.25,24.29-8.88,19-9.85-16.94-3.11-24.73-12.1-24.73-12.1s24,2.92,39.6-10.12c-10.83,0-15.56-9.58-15.56-9.58"/><path class="90c40412-1083-4aae-a045-9b04d1d92341" d="M1187,2303.14s20.85,11.4,33,6.91c-14.46-11.24-16.48-19.36-16.48-19.36s16.82,9.55,27.2,8.12c9-1.25,24.28-8.88,19-9.85-16.94-3.11-24.74-12.1-24.74-12.1"/><circle cx="985.6" cy="2078.8" r="4.71"/><circle cx="1063.51" cy="2036.64" r="4.71"/></g></g></svg>