<?xml version="1.0" encoding="utf-8"?>
<!-- Generator: Adobe Illustrator 22.0.1, SVG Export Plug-In . SVG Version: 6.00 Build 0)  -->
<svg version="1.1" id="Layer_1" xmlns="http://www.w3.org/2000/svg" xmlns:xlink="http://www.w3.org/1999/xlink" x="0px" y="0px"
	 viewBox="0 0 48 48" style="enable-background:new 0 0 48 48;" xml:space="preserve">
<style type="text/css">
	.st0{fill:#202020;}
</style>
<g>
	<g>
		<g>
			<g>
				<g>
					<path class="st0" d="M43.8,29.7c0-0.1-0.2-0.2-0.4,0.1l0.1,0.4L43.8,29.7z"/>
					<path class="st0" d="M42,30.7c-0.2,0.3-0.4,0.8,0,0.9c0.1-0.5,0.3-0.4,0.4-0.9c0.2-0.2,0.5-0.2,0.5-0.1c0-0.1,0.4-0.3,0.4-0.5
						c-0.5,0.1-0.8,0.4-1.1,0.9C42,30.9,42,30.7,42,30.7z"/>
					<path class="st0" d="M33.2,20.6l0.2-0.1C33.4,20.6,33.3,20.6,33.2,20.6z"/>
					<path class="st0" d="M26.4,36.4c0-0.1,0-0.2,0-0.2C26.4,36.3,26.4,36.4,26.4,36.4z"/>
					<path class="st0" d="M25.8,39.3c0-0.1,0-0.1,0-0.2C25.8,39.2,25.8,39.2,25.8,39.3z"/>
					<path class="st0" d="M33.2,20.6c-0.2,0.1-0.3,0.1-0.5,0.2C32.8,20.9,33,20.7,33.2,20.6z"/>
					<path class="st0" d="M38.5,32.8c0.1,0,0.2-0.1,0.3-0.1L38.5,32.8C38.5,32.8,38.5,32.8,38.5,32.8z"/>
					<path class="st0" d="M31.4,27l-0.1,0.1c0,0.1,0,0.1,0,0.2L31.4,27z"/>
					<path class="st0" d="M29.3,29.7c0,0-0.5,0.1-0.7,0.2c0.2-0.1,0.4-0.1,0.5-0.1C29.1,29.8,29.2,29.8,29.3,29.7z"/>
					<path class="st0" d="M37.1,31.8l0.2,0C37.2,31.7,37.1,31.7,37.1,31.8z"/>
					<path class="st0" d="M34.1,23.7c0,0,0.1,0,0.1,0C34.2,23.7,34.1,23.7,34.1,23.7z"/>
					<path class="st0" d="M16.9,11C16.9,11,16.9,11,16.9,11C16.9,11,16.9,11,16.9,11z"/>
					<path class="st0" d="M20.8,17.1L20.8,17.1C20.7,17,20.6,17,20.6,17L20.8,17.1z"/>
					<path class="st0" d="M28,39.9C28,39.9,28,39.9,28,39.9C28,40.1,28,40,28,39.9z"/>
					<path class="st0" d="M28.6,16.4c0.4-0.5,0.1,0.9,0.6,0.2C29.1,16.6,28.9,15.8,28.6,16.4z"/>
					<path class="st0" d="M38.4,32.8l-0.3,0C38.2,32.8,38.3,32.8,38.4,32.8z"/>
					<path class="st0" d="M29.2,16.6L29.2,16.6L29.2,16.6C29.2,16.5,29.2,16.6,29.2,16.6z"/>
					<path class="st0" d="M26.8,27.6c0,0-0.1,0.1-0.1,0.1C26.7,27.7,26.8,27.7,26.8,27.6z"/>
					<path class="st0" d="M27.2,36.8l0-0.2C27.2,36.6,27.2,36.7,27.2,36.8z"/>
					<path class="st0" d="M26.1,22.9c0-0.1,0.1-0.2,0-0.3c0,0,0,0,0,0.1C26.1,22.7,26.1,22.7,26.1,22.9z"/>
					<path class="st0" d="M25.9,18C25.9,18,25.8,18,25.9,18c0,0.1,0,0.2,0,0.2L25.9,18z"/>
					<path class="st0" d="M7.2,23.3c0.1-0.1,0.2-0.1,0.3-0.2C7.3,23.1,7.3,22.4,7.2,23.3z"/>
					<path class="st0" d="M38.5,32.6c0,0.1-0.1,0.1-0.1,0.1c0.1,0,0.1,0,0.2,0C38.5,32.7,38.5,32.7,38.5,32.6z"/>
					<path class="st0" d="M23.8,22.8l0-0.8C23.8,22.2,23.8,22.5,23.8,22.8z"/>
					<path class="st0" d="M15.7,18.5l0-0.2C15.6,18.4,15.6,18.5,15.7,18.5z"/>
					<path class="st0" d="M23.7,19.6c0.1-0.1,0.2-0.3,0.2-0.5c0,0,0-0.1-0.1-0.1L23.7,19.6z"/>
					<path class="st0" d="M7.5,23.1L7.5,23.1L7.5,23.1z"/>
					<path class="st0" d="M8.5,17.7c-0.3,0.7,0.2,0.5,0.3,0.7c-0.2,0.9-0.4,0.3-0.7,0.5C8,19.5,8.1,20.1,8,20.5
						c-0.1,0-0.1,0.1-0.2,0c0.1,0.7-0.5,1.8-0.2,2.6c0,0-0.1,0.1-0.1,0.1C7.7,23,7.9,23,8,23.1c-0.1,0.3,0.1,0.7-0.1,0.8
						c0-0.2,0-0.2-0.1-0.4l0,0.4c-0.4,0.3,0-0.5-0.3-0.6c0,0.7,0.1,1.6,0,2.1c-0.4,0.1,0-1.3-0.3-0.6c0.1-0.3,0.2-0.5,0.3-0.8
						c-0.6,0.6,0.1-0.5-0.5,0c-0.3,1.1,0,1.3-0.2,2.4c0.2,0.3,0.3-0.1,0.5,0.2c0.2,1.6-0.9,1.2-0.5,2.4c0.2,0.3,0.7,0.4,0.5,1.2
						L6.8,30c0.1,1.1,0.6,0.6,0.6,1.8c-0.2-0.2-0.3-0.8-0.3-0.7c-0.1,0.8,0.3,0.5,0.5,1.1c-0.1,0.1-0.2,0.1-0.3,0.2
						c0.1,0.2,0.2,0.5,0.3,0.7c0.2,0.3,0.3,0.5,0.6,0.7c0.4,0.4,1,0.7,1.6,0.7c0.7,0,1.3-0.3,1.8-0.8c0,0.1-0.2,0.5,0.2,0.2
						c0.2-0.2,0.4-0.5,0.6-0.8c0.2-0.3,0.2-0.4,0.4-0.7c0.2-0.4,0.4-0.8,0.6-1.1c0.4-0.7,0.8-1.5,1.2-2.2l-0.1-0.7
						c0.1-0.1,0.2-0.2,0.2,0c0.3-0.5-0.2-0.1-0.2-0.4c0.1-0.3,0.3-0.4,0.3-0.1c0.1-1.1,0.4-3,1-4l0,0.2c0.4-0.8-0.3-1.1,0.1-1.8
						l0,0.2c0.6-1.8,0.8-3.8,1.5-5.1c-0.4-0.4,0.6-1.7,0-2c0.2-0.5,0.4-0.6,0.5-0.8l-2.1-0.2c-0.1,0.2-0.2,0.5-0.3,1.3
						c0,0.4,0.4,0.6,0.4,1.1l-0.3,0l0.3,0.7l-0.4,0.3l0.1,0.5c0-0.2,0.1-0.4,0.2-0.4c0.1,0.7-0.2,1.7-0.4,1.8l0.2,1.7
						c-0.1,0-0.2-0.3-0.2-0.5c0.3,0.9-0.3,0.2,0,1c0.1-0.1,0.2,0.1,0.2,0.1c-0.2,0.4-0.2,1.4-0.1,2.1l-0.2-0.1
						c0,1.3,0.3,2.8,0.7,4.2c0-0.6,0.4-0.5,0.5-0.1l-0.3,0.3c0.3,0.2,0-0.5,0.4,0c0.1,0.5-0.3,0.5-0.4,0.2c0.1,0.2,0.2,0.4,0.3,0.6
						c-0.1,0.1-0.2-0.1-0.3-0.1c0.3,0.2,0.1,1.3,0.6,1.5l-0.1,0.1c0.4,0.8,0.8,1.3,1.4,1.8c0.6,0.4,1.4,0.8,2.3,0.7
						c0-0.3,0.7-0.3,1.1-0.6c1-0.2,2.1-0.8,2.8-1.6c0.4-0.7,0-0.3,0.1-0.7c0.2,0.1,0.9-0.7,0.7-0.2c0.8-1.1,1-1.4,1.6-2.9
						c-0.2,0.1-0.3,0.2-0.3,0.1c0.1-0.3,0.4-0.5,0.5-0.4l0,0.1c0.5-1.7,2.5-3.4,2.4-4.9l0,0.1c0.1-0.5,0.2-1,0.2-1.5
						c0.3-0.6,0.1,0.4,0.4,0c0.1-1.6,0.8-2.4,0.8-3.7c1-0.8,0.6-3.5,1.2-4.8l-0.2,0.1c-0.1-0.4,0.1-0.4,0.2-0.7
						c-0.1,0-0.2,0.4-0.3,0.1c0-1.5,0-3.1-0.2-4.8c0-0.2-0.1-0.4-0.1-0.6c-0.1-0.2-0.1-0.5-0.2-0.7C31,5.3,31,5.1,30.8,4.8
						c-0.2-0.3-0.4-0.6-0.7-0.8c-0.5-0.5-1.2-0.8-1.9-0.8c-0.7,0-1.4,0.3-1.9,0.8c-0.4,0.4-0.6,0.7-0.6,0.9c0,0.2,0,0.3,0,0.5
						c0,0.3,0,0.6-0.5,1.2c0-0.2-0.1-0.4-0.1-0.6c-0.4,1.3-0.6,2.5-0.8,3.6c-0.1,0.6-0.2,1.1-0.2,1.7c0,0.6-0.1,1.1,0,1.7
						c-0.1-0.1-0.2-0.1-0.1-0.4c-0.3,0.4-0.1,1.7,0.1,1.7c0,0.3-0.2,0.1-0.3,0.3c-0.2,0.5,0.2,1.2,0,1.4c0,0-0.1-0.1-0.1-0.2
						c0.1,0.3-0.1,1.4,0.2,1.1c-0.2,0.8,0.1,1.6,0,2.2c0.3,0.4-0.1,1.4,0.3,1.5c-0.5,0-0.3,1.4-0.1,1.9c-0.1-0.2-0.1,0.5-0.3,0.3
						c0,0.6,0.2,1.1,0.4,1c-0.5,1.1,0.6,2.1,0,2.8c0.4,1.7,0.7,3.3,1,4.8c-0.5,0-0.2-1.7-0.7-1.6c0.3,1.4,0.8,2.3,0.8,3.7
						c0,0.4-0.2-0.2-0.3-0.3c0.3,1.4,0.2,2.8,0.5,4.1c0,0-0.1-0.1-0.1-0.3c0,0.3,0,0.6,0.2,0.6l-0.1-0.2c0.3-0.4,0.7,1,0.8,1
						c-0.6-0.4-0.1,1.3-0.9,0.6c0,0.2,0.2,0.4,0.3,0.3c0,0.3-0.1,0.3-0.3,0.1c0.2,0.9,0.4,0.6,0.4,1.4c-0.1,0-0.1-0.2-0.3-0.2
						c0.2,0.4,0.4,0.8,0.3,1.5c-0.1,0-0.1,0-0.1-0.2c0,0.1,0,0.2,0,0.4l1.7,0c-0.1-1-0.4-1.9-0.1-3c0.4,0.4,0.2-0.4,0.6-0.5
						l-0.1-0.7l-0.2,0.3c0.1-0.6-0.2-1.2,0-1.7l0.1,0.5c0-0.4,0-0.8,0.1-1.2l-0.2,0.6c-0.1-0.6-0.5,0-0.3-0.8c0,0.2,0.1-0.6,0.3-0.9
						l0,0c-0.1-0.3-0.2-0.7,0-1.1c0.1-0.1,0.4,0.2,0.5,0.1c-0.3-0.4,0.2-1.4-0.1-1.9c0.1,0.1,0.2,0.2,0.3,0.2L28.2,32
						c0.1-0.3,0.2-0.3,0.3-0.2c0.2-0.8-0.5,0.2-0.1-0.8c0,0.1,0,0.1,0,0.2c0.3-1,0.3-2,0.8-2.8c0.4-0.1-0.2,0.8,0.2,0.6
						c0.3-1.3,0.5-2.8,1.2-3.9l-0.1,0.2c-0.4-0.4,0.7-0.8,0.8-1.4c-0.1,0.2,0.1,0.3,0.1,0.3c0.5-0.7,0.8-1.6,1.8-2.4l0,0.2
						c0.1,0,0.2-0.1,0.4-0.2c0.1-0.1,0.3-0.1,0.4-0.2c0,0,0,0,0,0c0,0,0-0.1,0-0.1l0,0l0,0l0,0c0,0.1,0-0.1,0,0.1l0,0l0,0l0,0l0,0
						l0,0c0-0.1,0-0.1,0-0.1c0,0,0,0-0.1,0.1c0,0-0.1,0-0.1,0l0,0c0.1,0,0.1,0.3,0.3,0.2c-0.1,0.1-0.3,0.3-0.4,0.4
						c-0.1,0.1-0.3,0.3-0.4,0.5c-0.3,0.3-0.5,0.7-0.7,1.1c-0.4,0.7-0.8,1.4-1.6,1.8c0.1-0.1,0.2-0.4,0.1-0.3l-0.8,1.1
						c0.2,0.1,0.2,0,0.5-0.1c0,0.2-0.2,0.6-0.4,0.8c0.3-0.6-0.3-0.2-0.5-0.1c0.1,0,0.1,0.1,0.1,0.2c-0.8,0.2,0.3,0.4-0.6,0.9
						l-0.1-0.1c-0.2,0.3-0.3,0.7-0.6,0.9c-0.4,0,0.2-0.3,0-0.5c-0.2,0.3-0.3,0.5-0.4,0.8c-0.1,0.2-0.2,0.4-0.6,0.6
						c0.1-0.2,0.3-0.4,0.5-0.6c-0.9,0.4-0.9,0.5-1.4,0.9l0.1,0c-0.3,0.2-0.7,0.5-1,0.8l0.2,0.1l-0.1-0.1c0,0,0,0,0.1-0.1
						c0,0,0,0,0.1,0c1.1-0.1,1.5,0,1.9,0.1c0.4,0.1,0.9,0.2,1.5,0.2c-0.6,0.1-0.8,0.1-0.7,0.1c0,0.1,0.2,0.1,0.1,0.3
						c0.3,0.2,0.7,0.4,0.5,0.4c0.2,0,0.4,0,0.5,0c0.1,0,0.2,0.1,0.3,0.1c0.2,0.1,0.4,0.2,0.7,0.1c0,0.1,0.4,0.1,0.3,0.3
						c0.6,0.1-0.1-0.2,0-0.3c0.9-0.1,1.9,1,3.3,0.7c1.1,0,1.4-0.3,2.4-0.5c0.3,0.2-0.3,0.4-0.3,0.4c0.6,0.1,1,0.1,1.5-0.1
						c-0.1,0.1,0,0.2,0.2,0.2c0.4-0.1,0.2-0.4,0.8-0.4c-0.1,0.1-0.2,0.3-0.4,0.5c0.5-0.2,1-0.5,1.4-0.7c0.2,0.1-0.2,0.4-0.4,0.5
						c0.6-0.2,1.5-0.7,1.5-1c-0.1,0-0.3,0.1-0.4,0.1c0.2-0.1,0.2,0.2,0.1,0.3c-0.4,0.4-0.7,0.2-0.8,0.1c0.1-0.1,0.2-0.1,0.3-0.2
						c-0.5-0.4-1.4,0.5-2.2,0.6l0.2-0.5c-0.2,0.2-0.5,0.3-0.7,0.4c-0.2-0.1-0.3-0.3,0.1-0.4c-0.5-0.2-0.4,0.2-0.9,0c0,0,0-0.1,0-0.1
						c-0.2,0-0.3,0.1-0.5,0.1c0.1-0.1-0.1-0.3,0.2-0.2c-0.9-0.2-1.5,0.2-1.7-0.1l0.1,0C33.9,31.4,35,31.8,34,32l-0.5-0.9l-0.2,0.3
						c-0.1,0-0.4-0.1-0.3-0.2c-0.5,0.1,0,0.1-0.3,0.3c-0.5-0.4-1.7-0.3-1.7-0.8c-0.3,0.2,0.5,0.3-0.2,0.3c0-0.6-0.8-0.1-1.2-0.5
						c0.3-0.2,0.6,0,0.3-0.3c-0.2,0.2-0.5,0.1-0.6,0c-0.2-0.1-0.2-0.2-0.4-0.2c-0.3,0.1-0.6,0.1-1,0c0.1-0.2,0.4-0.4,0.5-0.5
						c0.1,0,0.4-0.2,0.7-0.4c0.3-0.2,0.7-0.5,0.9-0.7l0,0.1c-0.2-0.4,0.4-0.9,0.7-1.4c0.1,0.2,0.1,0.3,0,0.6l0.4-0.4
						c0-0.2,0.1-0.3,0.3-0.6l0.1,0.3c0.5-0.6,0.7-1.3,1.4-1.9c-0.2-0.2-1,0.1-0.5-0.7c0.1,0.1,0.3,0.2,0.2,0.4
						c0-0.1,0.1-0.3,0.2-0.4l-0.1,0.4c0.3-0.3,0-0.3,0.2-0.5c0.2,0.1,0.3-0.1,0.4,0c0,0.1-0.2,0.2-0.3,0.3c0.3-0.3,0.6-0.6,0.8-0.6
						c-0.1,0-0.2-0.2-0.1-0.4c0.4-0.6,0.3-0.1,0.7-0.3c0-0.1,0.1-0.3,0.2-0.5c0.1-0.2,0.1-0.3,0-0.4c0.1-0.2,0.2-0.3,0.3-0.4
						c0-0.1,0-0.4-0.1-0.7c-0.1-0.2-0.2-0.4-0.4-0.5c-0.2-0.2-0.4-0.2-0.6-0.2c-0.4,0-0.6,0.1-0.7,0.2c-0.1,0.1-0.1,0.1,0.1,0.1
						l0.1,0c0,0,0,0-0.1,0l0,0l0,0c-0.6,0.4-1.1,0.8-1.6,1.2c-0.5,0.4-1,0.9-1.3,1.5l-0.1-0.1c-0.3,0.7-0.7,1.5-0.8,2
						c-0.1,0.2-0.4,0.4-0.4,0.2c-0.2,0.5-0.1,0.6-0.5,1.3c0-0.6-0.2,0.1,0.1-0.6c-0.4,0.6-0.6,0.7-0.6,1.6c-0.1-0.3-0.5,0.4-0.5,0.8
						l0.3-0.4c-0.1,0.4-0.2,0.7-0.3,1l-0.3-0.3c-0.8,1.3,0,2.8-0.9,3.7c0.2,0.4,0.3-0.8,0.5-0.4c-0.2,0.7-0.8,1.3-0.8,1.5
						c-0.3,0.9,0.3,0.9,0.1,1.9c0.1-0.1,0.5-0.2,0.5,0.5c-0.1,0.7-0.6,0.8-0.6,0.3c0-0.2,0.1-0.2,0.1-0.2c0-0.2,0-0.5-0.2-0.3
						l0.1,0.1c-0.2,0.3-0.2,1.2-0.4,1c0.1,0.5,0.2,0.2,0.3-0.1c-0.3,0.8-0.1,1.3-0.3,2.2c0.1-0.1,0.2-0.3,0.2-0.1
						c-0.2,1.3,0.2,0.6,0.2,1.5c-0.2,0.5-0.4-0.2-0.3,0.7c-0.1,0.5-0.3,0.1-0.4-0.1c0.1,0.5,0,0.9-0.1,1.3l2.5,0
						c0.1-0.3,0.1-0.5,0.1-0.7l0.1,0.4c-0.1-0.3-0.1-0.5-0.1-0.7l-0.2,0.3c0-0.3,0-0.5,0.1-0.5c-0.2-0.3-0.4,0.2-0.6-0.3
						c0.1-0.3-0.2-1,0.1-1.1c-0.1,1.1,0.3-0.1,0.4,0.8c0-0.2,0-0.4,0-0.6c0,0,0.1,0,0.1,0.1c0.2-1-0.4-0.4-0.4-1.5
						c0.2,0.1,0.3-0.3,0.3-0.4c0,0.4-0.3,0.2-0.4-0.2c0.1-0.7-0.2-0.7-0.2-1.1l0,0.4c-0.2-0.1-0.2-0.5-0.3-0.9
						c0.1,0,0.1,0.4,0.2,0.2c-0.3-0.5,0.2-1.2,0-1.9c0.1-0.3,0.3-0.1,0.4-0.4c-0.3-0.8,0.2-0.9-0.1-1.7c-0.2,0.3-0.2,0.3-0.4-0.3
						l0.3,1.4l-0.4-0.9c0,0.4,0.2,0.9,0.2,1.1c-0.2-0.4-0.2-0.4-0.3-0.2c0.3-0.6-0.3-1.1-0.1-1.8l0.6,0c0.2-1-0.5-1.7-0.4-3
						l-0.1,0.4c-0.2-0.2-0.1-0.8-0.2-1.2c0.2,0,0.2-0.2,0.4-0.4c-0.1,0-0.1-0.9-0.5-1l0.2-0.6c0-1-0.7-1.1-0.7-2.1
						c0.2,0.3,0.3-0.2,0.5,0.5c0-0.3,0-0.6-0.1-0.6c0.1-0.2-0.3-0.9-0.2-1.2c-0.1-0.1-0.3-0.2-0.3-0.5c0,0,0.1,0,0.1,0
						c-0.1,0-0.2-0.6-0.4-0.2c0.6-1-0.2-2.9,0.4-3.8c-0.1-0.7-0.1-1.6-0.1-2.2c0.1,0,0.1,0,0.1,0.1c0.2-0.9-0.5-0.6-0.3-1.6
						c0.3-0.5,0.1,0.6,0.3,0.2c0.7-0.1,0-1.2,0.4-1.9l0,0.2c0.3-0.5-0.1-1.3,0-2.1c0,0,0.1,0,0.1,0c-0.2-0.6-0.2-1.8-0.1-2.6
						c0.2,0.3,0,0.4,0.3,0.3c0.1-0.4-0.4,0-0.3-0.7c0.2-0.2,0.5-0.6,0.8-0.6c-0.1,0.2-0.1,0.4-0.2,0.6c0.4-0.2,0.3-0.8,0.5-1
						l0.1,0.1c0.1-0.2,0.2-0.4,0.2-0.5c0-0.1,0-0.1,0.1-0.2c0,0,0-0.1,0-0.1c0-0.2,0.1-0.5,0.5-0.5c0,0-0.1-0.1-0.1-0.1
						c0.2-0.3,0.4-0.2,0.4-0.1c0.1,0.1,0.1,0.2,0.4,0.2c0,0.2-0.1,0.3-0.1,0.4c0.1,0.1,0.3,0.1,0.6,0.4c0.3,0.3,0.4,0.6,0.6,1
						c-0.2-0.2-0.4-0.5-0.6-0.7c-0.2-0.2-0.4-0.4-0.5-0.4c0,0,0.1,0.1,0.1,0.2c0.1,0.1,0.1,0.2,0.2,0.3c0.1,0.2,0.2,0.4,0.4,0.5
						c-0.1-0.2-0.2-0.3-0.2-0.4c0.4,0.3,0.8,0.9,0.9,1.7c-0.4,0-0.4,0.5-0.4,1.1c0,0.6,0,1.3-0.3,1.6c0.2,1.4-0.4,2.8-0.7,4.4
						c0.7-0.5-0.1,0.5,0.5,0.5c0,0.4-0.1,0.5-0.1,0.6c-0.2,0.4-0.4,0.7-0.6,1.1c-0.2,0.2,0-0.4-0.2-0.4c-0.3,0.8-0.3,0.3-0.6,0.8
						c0.2-0.1,0.2,0.4,0,0.8l0.5-0.6c0,1.2-0.8,0.8-0.8,2.1l-0.1-0.4c-0.1,0.6-0.8,2.1-0.5,2.8c-0.1,0.1-0.3,0.1-0.3-0.1
						c-0.6,1.3-0.9,3.2-1.7,4l-0.1-0.2c-0.1,0.3,0,0.5-0.3,0.8c0,0-0.1-0.2-0.1-0.1c0,0.1-0.2,0.7-0.4,1l0-0.3
						c-0.5,0.5-0.7,1-0.9,1.4c-0.2,0.5-0.4,0.9-0.8,1.3c-0.1-0.2-0.4-0.1-0.7-0.1c-0.3,0-0.6,0.1-0.7,0.1l0-0.1
						c-0.4,0-0.5,0.1-0.9-0.1c-0.4-0.2-0.8-0.7-1.2-1.4c0.1-0.5-0.1-1.2-0.3-2.1c-0.1-0.8-0.2-1.8-0.2-2.5c-0.1,0.2-0.3,0-0.4-0.3
						c0.1-0.4-0.3-1,0.1-0.9l0,0.1c0.4-0.3,0.3-1,0.3-1.6l-0.5-0.1c0.8-1.6-0.2-4.1,0.4-4.9c-0.1-0.4-0.1-0.8-0.3-1.2l0.3,0
						c0-0.3,0-0.6,0.1-0.9l-2.6-0.3c-0.1,0.6-0.3,1.1-0.4,1.9L15,15.9c-0.2,0.7,0.6,1.1,0.5,1.7L15,17.7c-0.3,1.2-0.9,2.4-0.9,3.7
						c-0.1,0-0.2-0.1-0.1-0.3c-0.2,0.6-0.9,2.1-0.2,2.1c-0.4-0.1-0.4,1.2-0.4,1.9l-0.2-0.2c0.2,0.7,0.3,0.7,0.1,1.5
						c-0.1,0.2-0.3,0.1-0.1-0.1c-0.3,0.6,0.1,0.5-0.3,1.2l-0.1-0.3c-0.2,0.6-0.1,0.6-0.1,1c0,0.4-0.5,1.1-0.8,1.1
						c0.1,0.1,0.2,0.5-0.1,0.9c-0.1,0-0.1-0.1-0.1-0.2c-0.6,0.9-0.4,1.6-0.9,2.1c-0.1,0-0.1,0-0.2,0c0.2-0.3,0.3-0.7,0.5-0.9
						c0.1-0.2,0.2-0.4,0.2-0.3c-0.2-0.1-0.6,0.5-0.7-0.1c0,0.3-0.1,0.7-0.1,1.1c0,0.1,0,0.2-0.1,0.2c0,0,0,0.1,0,0.1
						c0,0.1-0.1,0.1-0.1,0.2c0,0,0,0-0.1-0.1l0,0c-0.1,0-0.1,0.1-0.1,0.1c-0.1,0-0.1,0-0.2,0c0-0.1,0-0.1,0-0.1
						c0-0.1-0.2-0.1-0.2-0.1c-0.2,0.3-0.3,0.1-0.3,0.4c0,0,0,0,0.1,0.1c0,0,0.1,0,0.1,0l0,0c0.1,0.1,0.2,0.1,0.3,0.1
						c0,0,0.1,0,0.1,0c0,0.1-0.1,0.1-0.1,0.1c-0.1,0.1-0.3,0-0.3-0.2c-0.2,0.1-0.4,0.2-0.5,0.2c0-0.3,0.1-0.6,0.1-0.8
						c0-0.3,0.1-0.6,0.2-0.6c-0.4-0.9-0.5-2.2-1-2.9C8.3,28,8.6,28,8.6,27.9c0.1,0.2,0,0.4,0.1,0.5c-0.2-0.6,0-1.7-0.3-1.9
						c0.2-0.7,0.3,0.4,0.3-0.6L8.8,26c0.4-1,0.3-1.8,0.2-2.7c0-0.9,0-1.8,0.7-2.8c-0.1,0.1-0.1,0.2-0.2,0.2c0.5-1.2,1-2.4,1.5-3.6
						c0.6-1.2,1.3-2.3,2.4-3c0.6-0.4,0.5-0.6,0.7-1l0.3,0.2c0.1-0.2,0.3-0.4,0.4-0.6c0.4-0.3,0.9-0.2,1.3,0c0.4,0.2,0.7,0.4,1.3,0.5
						l0-0.3c0.4,0.2,1.2,0.8,1,0.9c0.1,0,0.3,0,0.3,0.2l-0.1,0.1c0.3,0.2,0.6,0.5,0.9,0.7c0.3,0.8-0.6,0.2-0.1,1.3
						c0.2,0.4,0.8,1.1,0.9,0.9c0-0.2,0-0.5,0.1-0.6c0.1,0.1,0.1,0.3,0.2,0.4c0.5,0,1.1,0.3,1-1.1c-0.2-0.3-0.4-0.5-0.6-0.7l0.1-0.4
						c0.1,0.2,0.2,0.5,0.3,0.7c0-0.5-0.3-0.7-0.5-0.9c0.1-0.1,0.1-0.3,0-0.5c-0.3-0.2-0.6-0.3-0.9-0.5c0.1-0.2,0.5,0.1,0.2-0.4
						c-0.4-0.2-0.1,0.6-0.6,0.1c-0.1-0.5,0.1-0.5-0.4-0.7c0-0.1,0.2-0.1,0.4,0c-0.4-0.2-1-0.8-1.4-0.7c-0.1-0.2-0.5-0.4-0.9-0.5
						c-0.3-0.1-0.6-0.2-0.6-0.4c-0.2,0.1-1,0.2-1.4,0.4c0.4-0.3-0.1-0.3-0.6-0.2c-0.5,0.1-1,0.4-1.1,0.1c-0.4,0.7-1.7,1.4-2.2,2.3
						c0-0.1,0-0.2,0.1-0.2c-0.4,0.4-0.6,0.4-0.9,0.7c0.3,0.3-0.1,1-0.2,1.5c-0.7,0.3-0.2-0.6-0.6-0.6c0.3,0.1-0.3,1.1,0,1.1
						c-0.5,0.3-0.3,0.3-0.7,0.4c0.4,0.3-0.1,0.4-0.1,0.9c-0.5,0.5-0.5,0-0.7,0.7C8.3,18.4,8.5,17.7,8.5,17.7z M11.4,33.6L11.4,33.6
						c-0.1,0.2-0.3,0.3-0.4,0.3C11.1,33.9,11.2,33.8,11.4,33.6z M12.4,32.1c-0.1,0.2-0.2,0.4-0.3,0.6c-0.1,0-0.2-0.1-0.1-0.2
						C12,32.5,12.3,32.2,12.4,32.1z M9.9,32.1C9.9,32.1,9.9,32.1,9.9,32.1c0.1,0.1,0.1,0.1,0.1,0.1c0,0,0,0,0,0c0,0-0.1,0-0.1,0
						c0,0,0,0,0,0C9.8,32.2,9.8,32.1,9.9,32.1z"/>
					<path class="st0" d="M9.6,32.4C9.6,32.4,9.6,32.4,9.6,32.4C9.5,32.4,9.5,32.5,9.6,32.4L9.6,32.4L9.6,32.4z"/>
					<path class="st0" d="M33.5,20.6L33.5,20.6C33.5,20.6,33.5,20.6,33.5,20.6C33.5,20.6,33.5,20.6,33.5,20.6z"/>
					<polygon class="st0" points="15.6,16.9 15.6,16.9 15.6,16.8 					"/>
					<path class="st0" d="M29.9,26.7c0,0-0.1,0-0.1,0C29.8,26.7,29.8,26.7,29.9,26.7z"/>
					<path class="st0" d="M26.8,29.7l-0.7,0.5C26.4,30,26.6,29.8,26.8,29.7z"/>
					<path class="st0" d="M28.7,31.1c0.1,0,0.1-0.1,0.2-0.1l0,0L28.7,31.1z"/>
					<path class="st0" d="M25.4,37.1c0,0,0-0.1,0-0.1C25.3,36.8,25.3,36.9,25.4,37.1z"/>
					<path class="st0" d="M27.7,35c0,0.1,0.1,0.3,0.1,0.4C27.8,35.2,27.9,35,27.7,35z"/>
					<polygon class="st0" points="23.8,22.9 23.8,22.9 23.8,22.8 					"/>
					<path class="st0" d="M27.7,36c0.1-0.2,0.1-0.4,0.1-0.6C27.7,35.6,27.7,35.8,27.7,36z"/>
					<path class="st0" d="M41.1,32.1l0.1,0c0,0,0,0,0,0L41.1,32.1z"/>
					<path class="st0" d="M41.2,32l0.1-0.1C41.3,32,41.2,32,41.2,32z"/>
					<path class="st0" d="M41.6,31.7l-0.3,0.2C41.4,31.9,41.6,31.8,41.6,31.7z"/>
					<path class="st0" d="M37.3,32.8l0,0.1C37.2,32.9,37.3,32.8,37.3,32.8z"/>
					<path class="st0" d="M36.1,32.8c0.3,0,0.7,0.2,1.1,0.2l0-0.1C37,33.1,36.4,32.7,36.1,32.8z"/>
					<path class="st0" d="M31.8,30.7l0.9,0.3c-0.1-0.1-0.3-0.3,0.1-0.3C31.8,30.2,33,31.1,31.8,30.7z"/>
					<path class="st0" d="M29.6,29.9c0.3,0,0.1-0.1,0.2-0.2C29.6,29.8,29.5,29.8,29.6,29.9z"/>
					<path class="st0" d="M29.2,25.6L29,25.4C28.9,25.8,29.1,25.5,29.2,25.6z"/>
					<polygon class="st0" points="29.1,29.7 29.3,29.4 29.2,29.1 					"/>
					<path class="st0" d="M26.7,31.5l0-0.2c0,0.2,0,0.4,0,0.7L26.7,31.5z"/>
					<path class="st0" d="M26.1,18.8l-0.3,0.1C25.9,19.2,26.2,19.2,26.1,18.8z"/>
					<path class="st0" d="M28.2,5.6c0.1,0.1,0.3,0.2,0.4,0.1C28.4,5.7,28.3,5.6,28.2,5.6z"/>
					<polygon class="st0" points="18,20.8 18.1,21.1 18.1,20.6 					"/>
				</g>
			</g>
		</g>
	</g>
</g>
</svg>
