<svg id="bb0a8f07-b774-4821-b3cf-39677d230cbf" data-name="Layer 3" xmlns="http://www.w3.org/2000/svg" viewBox="0 0 440.21 437"><defs><style>.bf18c489-6ffb-4267-b26b-fd422f086269{fill:none;stroke:#000;stroke-miterlimit:10;stroke-width:3px;}</style></defs><title>ism360</title><path class="bf18c489-6ffb-4267-b26b-fd422f086269" d="M337,873a85,85,0,1,1-85-85A85,85,0,0,1,337,873Zm-85-54.24a27,27,0,1,0,27,27A27,27,0,0,0,252,818.76Zm27.52,53.73a35.25,35.25,0,0,1-55.18.1A44.87,44.87,0,0,0,207.11,908H297A44.85,44.85,0,0,0,279.56,872.49ZM240,784V681H188m85,277.5v51H389m74.5,48.94V938.56a3.06,3.06,0,0,0-3.06-3.06H393.56a3.06,3.06,0,0,0-3.06,3.06v119.88a3.06,3.06,0,0,0,3.06,3.06h66.88A3.06,3.06,0,0,0,463.5,1058.44ZM391,954h72M185.79,627.5H26.29V731h159.5ZM27.38,635.7H184.7M391,1044h72m-36,5a4,4,0,1,0,4,4A4,4,0,0,0,427,1049Zm-22-59h46m-38,7h28m-44-35h21m17,0h10m2,0h10M106,731v26m-63-.5H169m-11.28-60,2.9,7,4.1-4.11Zm5,4.95,2.13,2.13m-93.3-32h69m-55,9h41m43.46-37h9m-20,0h9m-135,0H55M102.81,721l3.21,3.21,3.25-3.25" transform="translate(-24.79 -626)"/></svg>