<svg id="00d5e54a-a55b-4731-900a-efd065740f84" data-name="Layer 1" xmlns="http://www.w3.org/2000/svg" viewBox="0 0 280.41 159.63"><defs><style>.\37 a2c197c-12b5-4e02-add8-08d619fc63c8{fill:#919191;}</style></defs><title>jc-nutrition</title><path class="7a2c197c-12b5-4e02-add8-08d619fc63c8" d="M239,234.15c5.48-4.08,9.79-8.85,16.11-10.59a9.79,9.79,0,0,1,5.86-.22,2.45,2.45,0,0,1,1.83,2.65,2.34,2.34,0,0,1-1.65,2.18c-17.5,6.79-23.89,21.13-25.88,38.38-.29,2.47.06,5-.38,7.46-.62,3.35-3.27,5.52-6.35,5.1-2.79-.37-2.2-3.39-2.06-5.8.81-14.1,1.43-28.21,3.46-42.21.25-1.71-.17-4.48,2-4.53,2.5-.07,5.46-.32,7.62,1.56S238.84,231.71,239,234.15Z" transform="translate(-110.94 -169.41)"/><path class="7a2c197c-12b5-4e02-add8-08d619fc63c8" d="M253.74,193.73a13.32,13.32,0,0,1,1.35-22.93A12.93,12.93,0,0,1,268.77,172c1,.74,2.86,1.84,1.27,3.38-1.25,1.22-1.8,2.79-4.24,1.05-4-2.82-8.25-2.1-10.66,1.18a7.41,7.41,0,0,0,.17,9.68c2.92,3.58,6.61,3.43,10.28,1.16,1.16-.72,1.8-1.64,3.25-.26,1.14,1.09,2.5,1.48,1,3.59C267.72,194.68,260,198.08,253.74,193.73Z" transform="translate(-110.94 -169.41)"/><path class="7a2c197c-12b5-4e02-add8-08d619fc63c8" d="M240.79,192c-3.93,3.2-7.63,2.35-11.82,0-2.5-1.38-1.53-2.28-1-3.42.91-1.92,2.51-1.06,3.8-.52,4.67,2,6,.76,6-6s.83-7.33-4.77-7.23c-1.73,0-2.83-.21-2.83-2.35S231,170,233.43,170c9.85,0,10-.5,9.74,9.29C243.05,183.59,243.46,189.29,240.79,192Z" transform="translate(-110.94 -169.41)"/><path class="7a2c197c-12b5-4e02-add8-08d619fc63c8" d="M207.63,263.47v.37C207.64,263.71,207.64,263.59,207.63,263.47Z" transform="translate(-110.94 -169.41)"/><path class="7a2c197c-12b5-4e02-add8-08d619fc63c8" d="M391.14,225.9c.17-4-.43-7.34-5.11-8.36-4.34-1-5.45,2.62-6.8,5.16-3.89,7.35-10.1,24.55-11,28.2,0-4.36.05-8.33,0-12.3-.05-3.15-2.06-4.22-4.9-4.49-3.19-.3-2.32,2.34-2.61,3.78a85.71,85.71,0,0,0-1.56,17.37c.06,6.33.21,12.65,2.66,18.65,1.12,2.74,3.12,3.64,6,3.29,2.69-.33,4.2-1.58,4.42-4.4.19-2.48.68-4.94.94-7.42,1.26-11.53,6.41-34.13,8.72-33.92,1.13.1.71,2.76.6,3.85A211.14,211.14,0,0,0,382,274.5a9.17,9.17,0,0,0,3.18,6.44c1.55,1.42,2.74,1.48,4,.76s2.64-3.24,2-4.41c-2.5-4.46-3.17-18-2.39-24.67C389.81,243.7,390.74,234.9,391.14,225.9Z" transform="translate(-110.94 -169.41)"/><path class="7a2c197c-12b5-4e02-add8-08d619fc63c8" d="M160.14,190c-3.49-2.1-6.84-2-10,.77a25.76,25.76,0,0,0-3.27,3c-7,9-12.48,18.95-17.74,29-2.63,5-7.33,15.47-7.56,15.4s-.35-24.57,3-36.52c1-3.75-.44-6.47-3.86-7.44s-7.16-1.29-7.6,4.06c-.15,1.82-.74,3.59-.94,5.41-3.05,27.81.39,55.55,1,83.33.05,2.16.55,3.55,3.55,3.46,5.36-.16,7-1.34,7.18-6.81.86-26.75,6.91-52,21.5-74.81,2.08-3.26,5.33-10.2,7.48-9.53,2,.61-3.83,33.15-6.36,48.18-1,6.08-3.43,22-4.31,33.62-.75,9.93.62,37.9,2,43.52.71,2.85,2.89,5.38,6.26,4.11,3-1.11,4-3.54,2.34-6.84a21.93,21.93,0,0,1-2-7.17c-1.88-13.91-1.49-27.84.06-41.71.36-3.21,1.27-16.83,2-20.71,2-10.89,3.05-21.78,5.34-32.8,1.78-8.59,3.6-14.21,4.48-21.49C163.05,195.05,163.31,191.9,160.14,190Z" transform="translate(-110.94 -169.41)"/><path class="7a2c197c-12b5-4e02-add8-08d619fc63c8" d="M236,204.1c-2,.16-14.21,2.43-13.92-1.22.38-4.77-3.16-4.95-6.62-4.75-2.18.13-4.76.16-4.65,3.19.15,4.14-2.17,4.15-5.34,4.35-9,.54-17.89,1.52-26.83,2.33-1.8.17-3.26.79-3.09,2.95s1.77,2.65,3.51,2.76a20.44,20.44,0,0,0,3.48-.24c7.61-.77,15.23-1.46,22.83-2.38,3.37-.41,4.26,0,4.15,4.06-.23,7.83-1.14,14.58-1.24,21.88-.06,3.86-.69,6.07-2.55,10.73-1.58,4-2.68,7.15-4.7,11.52-2.81,6.07-7.74,20.22-9.33,19.71-2.23-.72-3.26-12.79-2.35-18.48,1.45-9,3.8-17.84,5.88-26.72.55-2.33.19-3.84-2.27-4.63-2.1-.67-3.62-.7-5.07,1.49a181.72,181.72,0,0,0-13.1,22.89c-2.5,5.3-6.64,17.28-8.65,16.65-3.28-1-.85-11.17.24-16.18,1.13-5.18,2.52-10.31,3.7-15.48.66-2.86.23-5.12-3.08-6.32-3.53-1.27-4.43,1-5.42,3.37a35.26,35.26,0,0,0-2,5.62c-2.11,8.79-3.43,17.64-1.67,26.68.74,3.8,1.41,7.86,6.06,8.76s8-1.32,10.3-5.32c1-1.73,2-3.46,2.86-5.24,1.79-3.58,3.52-7.18,5.27-10.78.31,7.88.15,15.53,2.86,22.82,1,2.68,1.45,6.18,5.1,6.73s5.41-2.2,7.18-4.54a29.26,29.26,0,0,0,3.28-6.12c1.75-4.06,3.32-8.19,5-12.29.47-1.5,1.76-2.49,1.72-.13L208,281c.8,6.88,1.07,22.08,3.42,25.1,1.07,1.37,1.76,3.75,4.59,2.52,2.51-1.08,3.92-2.64,3.09-5.32-1.14-3.7-3.29-34.36-2.49-43.26,1-11.44,1.81-22.8,3.4-34.11.79-5.64,1.11-7.44,2.51-14.07a2.73,2.73,0,0,1,2.61-2.23c7.08.17,14.59-1.21,22.06-1.75,8.32-.61,24.44-1.63,24.44-5.3C271.63,200.33,249.31,203.11,236,204.1Z" transform="translate(-110.94 -169.41)"/><path class="7a2c197c-12b5-4e02-add8-08d619fc63c8" d="M303,205c-2.76.14-1.92-2.23-2.29-3.54-1.06-3.8-4-3.35-6.83-3.38s-4.62,1.08-4.5,4.07-1.37,3.22-4,3.38c-9.29.57-18.56,1.55-27.83,2.4-1.75.17-3.35.73-3.25,2.9s1.75,2.7,3.45,2.84a22.12,22.12,0,0,0,4-.25c7.78-.8,15.56-1.64,23.34-2.38,1.46-.14,3.54-1,3.32,2-1.11,15.4-1.5,28.22-9,45.05-1.69,3.77-8.62,22.51-11.68,21.79-2.74-.64-.86-13.24-.25-19.46.83-8.44,2-16.84,2.75-25.29.19-2.3-.08-5.28-3.6-5.54s-4.65,2-5.09,4.9c-.72,4.77-1.61,9.53-2,14.33-.89,10.09-2.27,20.2-.38,30.33.67,3.6,2,6.8,6,7.67s6.75-1,8.82-4.18c1-1.53,2-3.06,2.84-4.67,2.61-5,6.13-14,7.71-14.86s1.58,1.92,1.62,3.38c.21,6.94,1.53,33.92,4,39.37.79,1.71,1.91,4,5,2.55,2.62-1.22,3.25-2.87,2.85-5.55-1.11-7.28-2-14.6-3-21.9-.12-2.09.14-16.47,1.1-25,1.58-14.14,2.83-28.32,4.11-42.49.23-2.63.71-4.58,3.8-4.64,5.34-.48,46.5-3,46.5-7.17C350.43,199.83,308,204.15,303,205Z" transform="translate(-110.94 -169.41)"/><path class="7a2c197c-12b5-4e02-add8-08d619fc63c8" d="M354.4,237.61c-.87-5.8-3.54-7.83-9.31-8.08-5.28-.23-7.74,3.22-9.67,7.23-5.58,11.51-11,23.1-16.58,34.61-1.33,2.73-2.31,5.75-5.31,8.54-1.15-7.15-.59-13.53-.08-19.93.68-8.63,3.12-17.07,2.66-25.79-.11-2.13-.51-4.45-3.53-4.54-2.79-.08-4.45,1.33-4.85,4-2.29,15-4.92,29.91-2.68,45.14.56,3.85,1.91,7.21,6.15,8.11s7.07-1.16,9-4.65c3.3-5.89,6.51-11.83,10.19-18.52,1,4.65,1.54,8.61,6.7,9.56s8.75-1,11.88-5.18C356,258.74,356,248.33,354.4,237.61Zm-8.82,21.05c-1.11,3.33-3.84,9.65-6.46,9.07-3.29-.73-1.31-9.93-.32-14.88,1.07-5.3,1.41-9.43,3.06-14,1-2.8,2.08-4.53,4.33-4.79,2.79-.32,3.33,2.63,3.42,4.58C350,247.13,348.17,250.91,345.58,258.66Z" transform="translate(-110.94 -169.41)"/></svg>