<svg id="8f26085c-02ea-4838-86f5-5dfb9ffcdbcd" data-name="Layer 1" xmlns="http://www.w3.org/2000/svg" viewBox="0 0 293.28 70.78"><defs><style>.\38 7bc2094-2e87-48c1-8b9d-f53df28ad597{fill:#c9c9c9;}.a82054b3-f3f4-47f8-ac29-9660ccb174a3{fill:#ddd;}.efe3a463-9572-497c-9985-131e815b8ab6{fill:#919191;}</style></defs><title>loyalty-funding</title><path class="87bc2094-2e87-48c1-8b9d-f53df28ad597" d="M181.25,250.83c-2.67,2-14.9,11.08-20.3,14.09-9.34,5.2-27.23,10.78-42.17,7C107,269,101.19,259.13,105.13,249.81a49,49,0,0,1,8.68-13s-6.72,6.23-10.78,10.61c-8.85,9.55-14.78,24.13,1.63,33.49,10.48,6,31.38.81,33.3.09h0c12.66-3,23.06-9.95,32.4-18.71C171.29,261.42,179.3,253.81,181.25,250.83Z" transform="translate(-94.3 -212.99)"/><polygon class="a82054b3-f3f4-47f8-ac29-9660ccb174a3" points="32.89 0 32.89 5.01 62.2 24.8 62.2 51.84 75.2 44.02 75.2 25.14 81.53 25.14 32.89 0"/><rect class="efe3a463-9572-497c-9985-131e815b8ab6" x="29.07" y="25.39" width="8.63" height="8.63"/><rect class="efe3a463-9572-497c-9985-131e815b8ab6" x="41.45" y="25.39" width="8.63" height="8.63"/><rect class="efe3a463-9572-497c-9985-131e815b8ab6" x="41.45" y="37.89" width="8.63" height="8.63"/><rect class="efe3a463-9572-497c-9985-131e815b8ab6" x="29.07" y="37.89" width="8.63" height="8.63"/><path class="efe3a463-9572-497c-9985-131e815b8ab6" d="M192.91,253v-.47a4,4,0,0,0,3.05-1.11,3.33,3.33,0,0,0,.83-1.59,14.24,14.24,0,0,0,.22-3V232.5a14.16,14.16,0,0,0-.24-3.06,3.22,3.22,0,0,0-.91-1.61,3.28,3.28,0,0,0-1.22-.74,6,6,0,0,0-1.73-.28v-.45h12.48v.45a6.45,6.45,0,0,0-1.75.3,3.17,3.17,0,0,0-2.11,2.36,13.85,13.85,0,0,0-.24,3v11.27c0,1.73.05,3,.14,3.86a6.23,6.23,0,0,0,.53,2.07,4.24,4.24,0,0,0,2,2.06,8.18,8.18,0,0,0,3.57.66,10.93,10.93,0,0,0,3.92-.62,5.94,5.94,0,0,0,2.6-1.9,7.91,7.91,0,0,0,1.13-2A18.93,18.93,0,0,0,216,245l.47,0-.26,8Z" transform="translate(-94.3 -212.99)"/><path class="efe3a463-9572-497c-9985-131e815b8ab6" d="M219.23,239.87a13.36,13.36,0,0,1,1.4-6.09,14.44,14.44,0,0,1,4.1-4.9,16,16,0,0,1,4.34-2.37,13.93,13.93,0,0,1,4.69-.83,13.58,13.58,0,0,1,5.82,1.32,15,15,0,0,1,4.92,3.72,13.12,13.12,0,0,1,3.44,8.9,13.25,13.25,0,0,1-.9,4.82,13.58,13.58,0,0,1-2.62,4.24,14.75,14.75,0,0,1-5,3.7,14.51,14.51,0,0,1-12,0,14.26,14.26,0,0,1-4.89-3.6,13.06,13.06,0,0,1-2.49-4.13A13.83,13.83,0,0,1,219.23,239.87Zm4.72.29a14.88,14.88,0,0,0,3.09,9.56,9.09,9.09,0,0,0,2.94,2.53,7.74,7.74,0,0,0,3.58.79,8,8,0,0,0,3.61-.78,9.12,9.12,0,0,0,3-2.54,15.07,15.07,0,0,0,3.09-9.64,20.33,20.33,0,0,0-.85-6,14.38,14.38,0,0,0-2.39-4.76,8,8,0,0,0-2.79-2.33,9.18,9.18,0,0,0-7.2,0,8.08,8.08,0,0,0-2.81,2.34,14.12,14.12,0,0,0-2.38,4.75A21,21,0,0,0,224,240.16Z" transform="translate(-94.3 -212.99)"/><path class="efe3a463-9572-497c-9985-131e815b8ab6" d="M258.12,253v-.45a6.1,6.1,0,0,0,1.81-.31,3.2,3.2,0,0,0,1.25-.82,3.12,3.12,0,0,0,.82-1.58,14.29,14.29,0,0,0,.22-3l0-3.81a5.8,5.8,0,0,0-.33-1.81,12.48,12.48,0,0,0-1.53-2.89l-5.06-7.6-.9-1.37a6.24,6.24,0,0,0-1.95-2,3.36,3.36,0,0,0-1-.41,7.94,7.94,0,0,0-1.37-.16v-.45h12.73v.45a7.91,7.91,0,0,0-2.07.3,1.68,1.68,0,0,0-1.09,1.69,2.67,2.67,0,0,0,.24,1,12.6,12.6,0,0,0,.79,1.43l5.3,8.28,4.53-7.07.51-.8a4.16,4.16,0,0,0,.72-2.23,2.4,2.4,0,0,0-.8-1.93,3.35,3.35,0,0,0-2.25-.69v-.45h9v.45a6.33,6.33,0,0,0-1.57.34,4,4,0,0,0-1.11.74,20.37,20.37,0,0,0-2.95,3.73l-4.45,6.79a8.21,8.21,0,0,0-1,1.78,7.23,7.23,0,0,0-.17,1.92v4.78a15.19,15.19,0,0,0,.2,3,3.21,3.21,0,0,0,.83,1.55,4,4,0,0,0,3.07,1.13V253Z" transform="translate(-94.3 -212.99)"/><path class="efe3a463-9572-497c-9985-131e815b8ab6" d="M306.21,253H293.37v-.45a5.84,5.84,0,0,0,2.43-.58,2.39,2.39,0,0,0,1.21-2.11,6.29,6.29,0,0,0-.55-2.15l-.33-.82-1.88-4.61h-8.59l-1,2.7-.48,1.21a9.58,9.58,0,0,0-.88,3.38,2.79,2.79,0,0,0,.32,1.34,2.7,2.7,0,0,0,.87,1,3.92,3.92,0,0,0,1.95.62V253h-8.75v-.45a3.94,3.94,0,0,0,1.82-.5,5.12,5.12,0,0,0,1.52-1.45,10.87,10.87,0,0,0,1.22-2.06c.4-.84.92-2.1,1.57-3.78L291,226.36h1.12l8.49,20.53a34.31,34.31,0,0,0,1.52,3.32,4.68,4.68,0,0,0,1.24,1.5,3.27,3.27,0,0,0,1.07.54,10.07,10.07,0,0,0,1.82.32ZM293.94,241.5l-4.1-10.12L286,241.5Z" transform="translate(-94.3 -212.99)"/><path class="efe3a463-9572-497c-9985-131e815b8ab6" d="M307.75,253v-.47a4,4,0,0,0,3.05-1.11,3.33,3.33,0,0,0,.83-1.59,14.24,14.24,0,0,0,.22-3V232.5a14.16,14.16,0,0,0-.24-3.06,3.22,3.22,0,0,0-.91-1.61,3.28,3.28,0,0,0-1.22-.74,6,6,0,0,0-1.73-.28v-.45h12.48v.45a6.45,6.45,0,0,0-1.75.3,3.17,3.17,0,0,0-2.11,2.36,13.85,13.85,0,0,0-.24,3v11.27c0,1.73.05,3,.14,3.86a6.23,6.23,0,0,0,.53,2.07,4.24,4.24,0,0,0,2,2.06,8.18,8.18,0,0,0,3.57.66,10.93,10.93,0,0,0,3.92-.62,5.94,5.94,0,0,0,2.6-1.9,8.23,8.23,0,0,0,1.13-2,18.93,18.93,0,0,0,.81-2.93l.47,0-.26,8Z" transform="translate(-94.3 -212.99)"/><path class="efe3a463-9572-497c-9985-131e815b8ab6" d="M343.69,227c-.82,0-1.69,0-2.63.08a14.42,14.42,0,0,0-4.48.76,5.21,5.21,0,0,0-2.44,2.09,10.91,10.91,0,0,0-1.34,3.71l-.45,0,.35-7.21h26.42l.36,7.21-.45,0a9.49,9.49,0,0,0-1.65-4.11,6.19,6.19,0,0,0-3.28-2A24.35,24.35,0,0,0,348,227v19.92a14.09,14.09,0,0,0,.23,3,3.28,3.28,0,0,0,2.07,2.41,6,6,0,0,0,1.8.31V253H339.57v-.45a6.07,6.07,0,0,0,1.83-.31,3.24,3.24,0,0,0,1.24-.82,3.29,3.29,0,0,0,.83-1.58,14.29,14.29,0,0,0,.22-3Z" transform="translate(-94.3 -212.99)"/><path class="efe3a463-9572-497c-9985-131e815b8ab6" d="M368,253v-.45a6.1,6.1,0,0,0,1.81-.31,3.2,3.2,0,0,0,1.25-.82,3.12,3.12,0,0,0,.82-1.58,14.29,14.29,0,0,0,.22-3l0-3.81a5.56,5.56,0,0,0-.34-1.81,12,12,0,0,0-1.52-2.89l-5.06-7.6-.9-1.37a6.24,6.24,0,0,0-1.95-2,3.3,3.3,0,0,0-1-.41,7.68,7.68,0,0,0-1.36-.16v-.45h12.73v.45a7.91,7.91,0,0,0-2.07.3,1.68,1.68,0,0,0-1.09,1.69,2.67,2.67,0,0,0,.24,1,11.19,11.19,0,0,0,.79,1.43l5.3,8.28,4.53-7.07.5-.8a4.09,4.09,0,0,0,.73-2.23,2.4,2.4,0,0,0-.8-1.93,3.36,3.36,0,0,0-2.25-.69v-.45h9v.45a6.34,6.34,0,0,0-1.56.34,4,4,0,0,0-1.11.74,20.37,20.37,0,0,0-3,3.73l-4.45,6.79a8.21,8.21,0,0,0-1,1.78,7.13,7.13,0,0,0-.18,1.92v4.78a15,15,0,0,0,.21,3,3.21,3.21,0,0,0,.83,1.55,4,4,0,0,0,3.07,1.13V253Z" transform="translate(-94.3 -212.99)"/><path class="87bc2094-2e87-48c1-8b9d-f53df28ad597" d="M195.69,260.81v4.85h4.18v1.93h-4.18v6h-2v-14.7h7.87v1.93Z" transform="translate(-94.3 -212.99)"/><path class="87bc2094-2e87-48c1-8b9d-f53df28ad597" d="M203.65,268.62v-9.74h2v9.51c0,2.29,1.24,3.49,3.1,3.49s3.11-1.2,3.11-3.49v-9.51h2v9.74c0,3.11-1.91,5.19-5.11,5.19S203.65,271.73,203.65,268.62Z" transform="translate(-94.3 -212.99)"/><path class="87bc2094-2e87-48c1-8b9d-f53df28ad597" d="M229.48,258.88v14.95h-.27l-9.72-10.35v10.1h-2V258.65h.28l9.72,10.54V258.88Z" transform="translate(-94.3 -212.99)"/><path class="87bc2094-2e87-48c1-8b9d-f53df28ad597" d="M244.73,266.19a7.06,7.06,0,0,1-7.37,7.39h-3.87v-14.7h3.87A7,7,0,0,1,244.73,266.19Zm-2,0a5.07,5.07,0,0,0-5.33-5.36h-1.89v10.8h1.89A5.17,5.17,0,0,0,242.71,266.19Z" transform="translate(-94.3 -212.99)"/><path class="87bc2094-2e87-48c1-8b9d-f53df28ad597" d="M248.21,258.88h2v14.7h-2Z" transform="translate(-94.3 -212.99)"/><path class="87bc2094-2e87-48c1-8b9d-f53df28ad597" d="M266.19,258.88v14.95h-.27l-9.73-10.35v10.1h-2V258.65h.27l9.72,10.54V258.88Z" transform="translate(-94.3 -212.99)"/><path class="87bc2094-2e87-48c1-8b9d-f53df28ad597" d="M283,265.77v5.88a7.89,7.89,0,0,1-5.74,2.18,7.6,7.6,0,1,1,5.44-13l-1.34,1.43a5.53,5.53,0,0,0-4.08-1.64,5.63,5.63,0,0,0,0,11.26,6.69,6.69,0,0,0,3.72-1.05V267.7h-3.78v-1.93Z" transform="translate(-94.3 -212.99)"/></svg>